%TF.GenerationSoftware,KiCad,Pcbnew,6.0.5-a6ca702e91~116~ubuntu20.04.1*%
%TF.CreationDate,2022-05-09T20:04:06+03:00*%
%TF.ProjectId,ict_v361-xs,6963745f-7633-4363-912d-78732e6b6963,rev?*%
%TF.SameCoordinates,Original*%
%TF.FileFunction,Soldermask,Top*%
%TF.FilePolarity,Negative*%
%FSLAX46Y46*%
G04 Gerber Fmt 4.6, Leading zero omitted, Abs format (unit mm)*
G04 Created by KiCad (PCBNEW 6.0.5-a6ca702e91~116~ubuntu20.04.1) date 2022-05-09 20:04:06*
%MOMM*%
%LPD*%
G01*
G04 APERTURE LIST*
G04 Aperture macros list*
%AMRoundRect*
0 Rectangle with rounded corners*
0 $1 Rounding radius*
0 $2 $3 $4 $5 $6 $7 $8 $9 X,Y pos of 4 corners*
0 Add a 4 corners polygon primitive as box body*
4,1,4,$2,$3,$4,$5,$6,$7,$8,$9,$2,$3,0*
0 Add four circle primitives for the rounded corners*
1,1,$1+$1,$2,$3*
1,1,$1+$1,$4,$5*
1,1,$1+$1,$6,$7*
1,1,$1+$1,$8,$9*
0 Add four rect primitives between the rounded corners*
20,1,$1+$1,$2,$3,$4,$5,0*
20,1,$1+$1,$4,$5,$6,$7,0*
20,1,$1+$1,$6,$7,$8,$9,0*
20,1,$1+$1,$8,$9,$2,$3,0*%
%AMFreePoly0*
4,1,17,0.514801,0.984701,0.984701,0.514801,1.003300,0.469900,1.003300,-0.469900,0.984701,-0.514801,0.514801,-0.984701,0.469900,-1.003300,-0.469900,-1.003300,-0.514801,-0.984701,-0.984701,-0.514801,-1.003300,-0.469900,-1.003300,0.469900,-0.984701,0.514801,-0.514801,0.984701,-0.469900,1.003300,0.469900,1.003300,0.514801,0.984701,0.514801,0.984701,$1*%
G04 Aperture macros list end*
%ADD10RoundRect,0.063500X-0.125000X-0.500000X0.125000X-0.500000X0.125000X0.500000X-0.125000X0.500000X0*%
%ADD11RoundRect,0.063500X0.125000X0.500000X-0.125000X0.500000X-0.125000X-0.500000X0.125000X-0.500000X0*%
%ADD12RoundRect,0.063500X-0.450000X-0.550000X0.450000X-0.550000X0.450000X0.550000X-0.450000X0.550000X0*%
%ADD13RoundRect,0.063500X0.540000X-0.525000X0.540000X0.525000X-0.540000X0.525000X-0.540000X-0.525000X0*%
%ADD14FreePoly0,180.000000*%
%ADD15RoundRect,0.063500X0.152400X0.406400X-0.152400X0.406400X-0.152400X-0.406400X0.152400X-0.406400X0*%
%ADD16RoundRect,0.063500X0.406400X-0.152400X0.406400X0.152400X-0.406400X0.152400X-0.406400X-0.152400X0*%
%ADD17RoundRect,0.063500X-1.625600X1.625600X-1.625600X-1.625600X1.625600X-1.625600X1.625600X1.625600X0*%
%ADD18RoundRect,0.063500X-0.200000X-0.800000X0.200000X-0.800000X0.200000X0.800000X-0.200000X0.800000X0*%
%ADD19RoundRect,0.063500X0.550000X-0.500000X0.550000X0.500000X-0.550000X0.500000X-0.550000X-0.500000X0*%
%ADD20RoundRect,0.063500X-0.550000X0.500000X-0.550000X-0.500000X0.550000X-0.500000X0.550000X0.500000X0*%
G04 APERTURE END LIST*
%TO.C,Y1*%
G36*
X143201100Y-97003600D02*
G01*
X142201100Y-97003600D01*
X142201100Y-96303600D01*
X143201100Y-96303600D01*
X143201100Y-97003600D01*
G37*
G36*
X144701100Y-97003600D02*
G01*
X143701100Y-97003600D01*
X143701100Y-96303600D01*
X144701100Y-96303600D01*
X144701100Y-97003600D01*
G37*
G36*
X146201100Y-97003600D02*
G01*
X145201100Y-97003600D01*
X145201100Y-96303600D01*
X146201100Y-96303600D01*
X146201100Y-97003600D01*
G37*
G36*
X146201100Y-94903600D02*
G01*
X145201100Y-94903600D01*
X145201100Y-94203600D01*
X146201100Y-94203600D01*
X146201100Y-94903600D01*
G37*
G36*
X144701100Y-94903600D02*
G01*
X143701100Y-94903600D01*
X143701100Y-94203600D01*
X144701100Y-94203600D01*
X144701100Y-94903600D01*
G37*
G36*
X143201100Y-94903600D02*
G01*
X142201100Y-94903600D01*
X142201100Y-94203600D01*
X143201100Y-94203600D01*
X143201100Y-94903600D01*
G37*
%TD*%
D10*
%TO.C,U3*%
X155391000Y-105118300D03*
X154891000Y-105118300D03*
X154391000Y-105118300D03*
X153891000Y-105118300D03*
X153391000Y-105118300D03*
D11*
X153391000Y-100892100D03*
X153891000Y-100892100D03*
X154391000Y-100892100D03*
X154891000Y-100892100D03*
X155391000Y-100892100D03*
%TD*%
D12*
%TO.C,TCXO0*%
X151001100Y-96703600D03*
X153801100Y-94903600D03*
X153801100Y-96703600D03*
X151001100Y-94903600D03*
%TD*%
D13*
%TO.C,C2*%
X149801100Y-103928600D03*
X149801100Y-105678600D03*
%TD*%
D14*
%TO.C,ISP0*%
X142290500Y-114650200D03*
X142290500Y-112110200D03*
X144830500Y-114650200D03*
X144830500Y-112110200D03*
X147370500Y-114650200D03*
X147370500Y-112110200D03*
%TD*%
D15*
%TO.C,U4*%
X147853700Y-98439800D03*
X147345700Y-98439800D03*
X146863100Y-98439800D03*
X146355100Y-98439800D03*
X145847100Y-98439800D03*
X145339100Y-98439800D03*
X144856500Y-98439800D03*
X144348500Y-98439800D03*
D16*
X143637300Y-99151000D03*
X143637300Y-99659000D03*
X143637300Y-100141600D03*
X143637300Y-100649600D03*
X143637300Y-101157600D03*
X143637300Y-101665600D03*
X143637300Y-102148200D03*
X143637300Y-102656200D03*
D15*
X144348500Y-103367400D03*
X144856500Y-103367400D03*
X145339100Y-103367400D03*
X145847100Y-103367400D03*
X146355100Y-103367400D03*
X146863100Y-103367400D03*
X147345700Y-103367400D03*
X147853700Y-103367400D03*
D16*
X148564900Y-102656200D03*
X148564900Y-102148200D03*
X148564900Y-101665600D03*
X148564900Y-101157600D03*
X148564900Y-100649600D03*
X148564900Y-100141600D03*
X148564900Y-99659000D03*
X148564900Y-99151000D03*
D17*
X146101100Y-100903600D03*
%TD*%
D18*
%TO.C,Y1*%
X145701100Y-95603600D03*
X144201100Y-95603600D03*
X142701100Y-95603600D03*
%TD*%
D13*
%TO.C,C1*%
X148001100Y-94928600D03*
X148001100Y-96678600D03*
%TD*%
D19*
%TO.C,PU2*%
X151701100Y-98253600D03*
X151701100Y-99953600D03*
%TD*%
D20*
%TO.C,PU1*%
X151701100Y-103853600D03*
X151701100Y-102153600D03*
%TD*%
M02*
