M48
; DRILL file {KiCad 6.0.5-a6ca702e91~116~ubuntu20.04.1} date 2022 m. gegužės 09 d. 20:04:09
; FORMAT={-:-/ absolute / metric / decimal}
; #@! TF.CreationDate,2022-05-09T20:04:09+03:00
; #@! TF.GenerationSoftware,Kicad,Pcbnew,6.0.5-a6ca702e91~116~ubuntu20.04.1
; #@! TF.FileFunction,Plated,1,2,PTH
FMAT,2
METRIC
; #@! TA.AperFunction,Plated,PTH,ViaDrill
T1C0.350
; #@! TA.AperFunction,Plated,PTH,ViaDrill
T2C0.600
; #@! TA.AperFunction,Plated,PTH,ComponentDrill
T3C1.016
%
G90
G05
T1
X140.101Y-104.504
X140.101Y-105.504
X140.201Y-94.904
X140.701Y-107.304
X141.401Y-94.904
X141.401Y-96.104
X141.401Y-97.204
X141.401Y-98.404
X141.401Y-99.604
X141.401Y-100.804
X141.401Y-102.004
X141.401Y-104.504
X141.401Y-105.504
X142.401Y-99.104
X144.201Y-97.404
X145.051Y-104.604
X145.701Y-97.504
X145.701Y-100.604
X145.701Y-101.304
X146.401Y-100.604
X146.401Y-101.304
X146.801Y-95.604
X147.101Y-104.604
X147.501Y-97.604
X148.301Y-104.604
X148.701Y-98.204
X149.001Y-96.904
X149.401Y-94.204
X149.801Y-102.204
X149.801Y-103.004
X150.101Y-98.504
X150.101Y-99.304
X150.101Y-100.604
X154.301Y-98.104
X154.301Y-99.104
X154.401Y-106.204
X155.601Y-99.104
X156.001Y-97.504
X156.301Y-102.404
X156.301Y-104.704
X156.301Y-105.504
X157.001Y-94.204
X157.001Y-95.304
X157.001Y-96.404
X157.001Y-97.504
X157.201Y-103.804
X157.201Y-104.704
X157.201Y-105.504
T2
X140.101Y-103.204
X140.141Y-96.324
X140.141Y-97.654
X140.211Y-99.434
X140.211Y-100.754
X140.401Y-114.704
X146.801Y-105.604
X148.301Y-105.604
X151.101Y-105.704
X152.4Y-105.704
X155.901Y-94.904
X156.0Y-96.5
X157.001Y-98.904
X157.001Y-100.104
X157.001Y-101.304
T3
X142.29Y-112.11
X142.29Y-114.65
X144.831Y-112.11
X144.831Y-114.65
X147.37Y-112.11
X147.37Y-114.65
T0
M30
