%TF.GenerationSoftware,KiCad,Pcbnew,6.0.5-a6ca702e91~116~ubuntu20.04.1*%
%TF.CreationDate,2022-05-09T20:04:05+03:00*%
%TF.ProjectId,ict_v361-xs,6963745f-7633-4363-912d-78732e6b6963,rev?*%
%TF.SameCoordinates,Original*%
%TF.FileFunction,Legend,Top*%
%TF.FilePolarity,Positive*%
%FSLAX46Y46*%
G04 Gerber Fmt 4.6, Leading zero omitted, Abs format (unit mm)*
G04 Created by KiCad (PCBNEW 6.0.5-a6ca702e91~116~ubuntu20.04.1) date 2022-05-09 20:04:05*
%MOMM*%
%LPD*%
G01*
G04 APERTURE LIST*
%ADD10C,0.056000*%
%ADD11C,0.105000*%
%ADD12C,0.119969*%
%ADD13C,0.074778*%
%ADD14C,0.114300*%
%ADD15C,0.381000*%
%ADD16C,0.097536*%
%ADD17C,0.093472*%
%ADD18C,0.203200*%
%ADD19C,0.127000*%
%ADD20C,0.152400*%
G04 APERTURE END LIST*
D10*
X147990833Y-97611600D02*
X148021500Y-97642266D01*
X147990833Y-97672933D01*
X147960166Y-97642266D01*
X147990833Y-97611600D01*
X147990833Y-97672933D01*
X149790833Y-96811600D02*
X149821500Y-96842266D01*
X149790833Y-96872933D01*
X149760166Y-96842266D01*
X149790833Y-96811600D01*
X149790833Y-96872933D01*
D11*
X140472766Y-113593683D02*
X139877766Y-113593683D01*
X140416100Y-112970350D02*
X140444433Y-112998683D01*
X140472766Y-113083683D01*
X140472766Y-113140350D01*
X140444433Y-113225350D01*
X140387766Y-113282016D01*
X140331100Y-113310350D01*
X140217766Y-113338683D01*
X140132766Y-113338683D01*
X140019433Y-113310350D01*
X139962766Y-113282016D01*
X139906100Y-113225350D01*
X139877766Y-113140350D01*
X139877766Y-113083683D01*
X139906100Y-112998683D01*
X139934433Y-112970350D01*
X139877766Y-112800350D02*
X139877766Y-112460350D01*
X140472766Y-112630350D02*
X139877766Y-112630350D01*
X139877766Y-111865350D02*
X139877766Y-111497016D01*
X140104433Y-111695350D01*
X140104433Y-111610350D01*
X140132766Y-111553683D01*
X140161100Y-111525350D01*
X140217766Y-111497016D01*
X140359433Y-111497016D01*
X140416100Y-111525350D01*
X140444433Y-111553683D01*
X140472766Y-111610350D01*
X140472766Y-111780350D01*
X140444433Y-111837016D01*
X140416100Y-111865350D01*
X140416100Y-111242016D02*
X140444433Y-111213683D01*
X140472766Y-111242016D01*
X140444433Y-111270350D01*
X140416100Y-111242016D01*
X140472766Y-111242016D01*
X139877766Y-110703683D02*
X139877766Y-110817016D01*
X139906100Y-110873683D01*
X139934433Y-110902016D01*
X140019433Y-110958683D01*
X140132766Y-110987016D01*
X140359433Y-110987016D01*
X140416100Y-110958683D01*
X140444433Y-110930350D01*
X140472766Y-110873683D01*
X140472766Y-110760350D01*
X140444433Y-110703683D01*
X140416100Y-110675350D01*
X140359433Y-110647016D01*
X140217766Y-110647016D01*
X140161100Y-110675350D01*
X140132766Y-110703683D01*
X140104433Y-110760350D01*
X140104433Y-110873683D01*
X140132766Y-110930350D01*
X140161100Y-110958683D01*
X140217766Y-110987016D01*
X140472766Y-109995350D02*
X140076100Y-109683683D01*
X140076100Y-109995350D02*
X140472766Y-109683683D01*
X140444433Y-109485350D02*
X140472766Y-109428683D01*
X140472766Y-109315350D01*
X140444433Y-109258683D01*
X140387766Y-109230350D01*
X140359433Y-109230350D01*
X140302766Y-109258683D01*
X140274433Y-109315350D01*
X140274433Y-109400350D01*
X140246100Y-109457016D01*
X140189433Y-109485350D01*
X140161100Y-109485350D01*
X140104433Y-109457016D01*
X140076100Y-109400350D01*
X140076100Y-109315350D01*
X140104433Y-109258683D01*
D12*
%TO.C,U3*%
X155851363Y-102581139D02*
X156320912Y-102581139D01*
X156376153Y-102553518D01*
X156403774Y-102525898D01*
X156431394Y-102470657D01*
X156431394Y-102360175D01*
X156403774Y-102304933D01*
X156376153Y-102277313D01*
X156320912Y-102249692D01*
X155851363Y-102249692D01*
X155851363Y-102028728D02*
X155851363Y-101669661D01*
X156072328Y-101863005D01*
X156072328Y-101780144D01*
X156099948Y-101724902D01*
X156127569Y-101697282D01*
X156182810Y-101669661D01*
X156320912Y-101669661D01*
X156376153Y-101697282D01*
X156403774Y-101724902D01*
X156431394Y-101780144D01*
X156431394Y-101945867D01*
X156403774Y-102001108D01*
X156376153Y-102028728D01*
D13*
%TO.C,TCXO0*%
X150639250Y-93861216D02*
X150996520Y-93861216D01*
X150817885Y-94486438D02*
X150817885Y-93861216D01*
X151562197Y-94426893D02*
X151532424Y-94456666D01*
X151443107Y-94486438D01*
X151383562Y-94486438D01*
X151294245Y-94456666D01*
X151234700Y-94397121D01*
X151204927Y-94337576D01*
X151175155Y-94218486D01*
X151175155Y-94129168D01*
X151204927Y-94010078D01*
X151234700Y-93950533D01*
X151294245Y-93890989D01*
X151383562Y-93861216D01*
X151443107Y-93861216D01*
X151532424Y-93890989D01*
X151562197Y-93920761D01*
X151770604Y-93861216D02*
X152187419Y-94486438D01*
X152187419Y-93861216D02*
X151770604Y-94486438D01*
X152544689Y-93861216D02*
X152663779Y-93861216D01*
X152723323Y-93890989D01*
X152782868Y-93950533D01*
X152812641Y-94069623D01*
X152812641Y-94278031D01*
X152782868Y-94397121D01*
X152723323Y-94456666D01*
X152663779Y-94486438D01*
X152544689Y-94486438D01*
X152485144Y-94456666D01*
X152425599Y-94397121D01*
X152395826Y-94278031D01*
X152395826Y-94069623D01*
X152425599Y-93950533D01*
X152485144Y-93890989D01*
X152544689Y-93861216D01*
X153199683Y-93861216D02*
X153259228Y-93861216D01*
X153318773Y-93890989D01*
X153348545Y-93920761D01*
X153378318Y-93980306D01*
X153408090Y-94099396D01*
X153408090Y-94248258D01*
X153378318Y-94367348D01*
X153348545Y-94426893D01*
X153318773Y-94456666D01*
X153259228Y-94486438D01*
X153199683Y-94486438D01*
X153140138Y-94456666D01*
X153110366Y-94426893D01*
X153080593Y-94367348D01*
X153050821Y-94248258D01*
X153050821Y-94099396D01*
X153080593Y-93980306D01*
X153110366Y-93920761D01*
X153140138Y-93890989D01*
X153199683Y-93861216D01*
%TO.C,C2*%
X149374393Y-105048862D02*
X149404166Y-105078634D01*
X149433938Y-105167952D01*
X149433938Y-105227497D01*
X149404166Y-105316814D01*
X149344621Y-105376359D01*
X149285076Y-105406131D01*
X149165986Y-105435904D01*
X149076668Y-105435904D01*
X148957578Y-105406131D01*
X148898033Y-105376359D01*
X148838489Y-105316814D01*
X148808716Y-105227497D01*
X148808716Y-105167952D01*
X148838489Y-105078634D01*
X148868261Y-105048862D01*
X148868261Y-104810682D02*
X148838489Y-104780909D01*
X148808716Y-104721364D01*
X148808716Y-104572502D01*
X148838489Y-104512957D01*
X148868261Y-104483185D01*
X148927806Y-104453412D01*
X148987351Y-104453412D01*
X149076668Y-104483185D01*
X149433938Y-104840454D01*
X149433938Y-104453412D01*
D14*
%TO.C,ISP0*%
X140425433Y-109820159D02*
X140425433Y-109234459D01*
X140676447Y-109792269D02*
X140760119Y-109820159D01*
X140899571Y-109820159D01*
X140955352Y-109792269D01*
X140983243Y-109764378D01*
X141011133Y-109708597D01*
X141011133Y-109652816D01*
X140983243Y-109597035D01*
X140955352Y-109569145D01*
X140899571Y-109541254D01*
X140788009Y-109513364D01*
X140732228Y-109485473D01*
X140704338Y-109457583D01*
X140676447Y-109401802D01*
X140676447Y-109346021D01*
X140704338Y-109290240D01*
X140732228Y-109262350D01*
X140788009Y-109234459D01*
X140927462Y-109234459D01*
X141011133Y-109262350D01*
X141262147Y-109820159D02*
X141262147Y-109234459D01*
X141485271Y-109234459D01*
X141541052Y-109262350D01*
X141568943Y-109290240D01*
X141596833Y-109346021D01*
X141596833Y-109429692D01*
X141568943Y-109485473D01*
X141541052Y-109513364D01*
X141485271Y-109541254D01*
X141262147Y-109541254D01*
X141959409Y-109234459D02*
X142015190Y-109234459D01*
X142070971Y-109262350D01*
X142098862Y-109290240D01*
X142126752Y-109346021D01*
X142154643Y-109457583D01*
X142154643Y-109597035D01*
X142126752Y-109708597D01*
X142098862Y-109764378D01*
X142070971Y-109792269D01*
X142015190Y-109820159D01*
X141959409Y-109820159D01*
X141903628Y-109792269D01*
X141875738Y-109764378D01*
X141847847Y-109708597D01*
X141819957Y-109597035D01*
X141819957Y-109457583D01*
X141847847Y-109346021D01*
X141875738Y-109290240D01*
X141903628Y-109262350D01*
X141959409Y-109234459D01*
D15*
%TO.C,U4*%
X148650171Y-96649402D02*
X148752980Y-96546592D01*
X148855790Y-96649402D01*
X148752980Y-96752211D01*
X148650171Y-96649402D01*
X148855790Y-96649402D01*
D16*
%TO.C,Y1*%
X144483954Y-94067408D02*
X144483954Y-94311248D01*
X144313266Y-93799184D02*
X144483954Y-94067408D01*
X144654642Y-93799184D01*
X145093554Y-94311248D02*
X144800946Y-94311248D01*
X144947250Y-94311248D02*
X144947250Y-93799184D01*
X144898482Y-93872336D01*
X144849714Y-93921104D01*
X144800946Y-93945488D01*
D13*
%TO.C,C1*%
X147574393Y-96048862D02*
X147604166Y-96078634D01*
X147633938Y-96167952D01*
X147633938Y-96227497D01*
X147604166Y-96316814D01*
X147544621Y-96376359D01*
X147485076Y-96406131D01*
X147365986Y-96435904D01*
X147276668Y-96435904D01*
X147157578Y-96406131D01*
X147098033Y-96376359D01*
X147038489Y-96316814D01*
X147008716Y-96227497D01*
X147008716Y-96167952D01*
X147038489Y-96078634D01*
X147068261Y-96048862D01*
X147633938Y-95453412D02*
X147633938Y-95810682D01*
X147633938Y-95632047D02*
X147008716Y-95632047D01*
X147098033Y-95691592D01*
X147157578Y-95751137D01*
X147187351Y-95810682D01*
D17*
%TO.C,PU2*%
X151340481Y-99533431D02*
X150733953Y-99533431D01*
X150733953Y-99302373D01*
X150762836Y-99244608D01*
X150791718Y-99215726D01*
X150849482Y-99186844D01*
X150936129Y-99186844D01*
X150993894Y-99215726D01*
X151022776Y-99244608D01*
X151051658Y-99302373D01*
X151051658Y-99533431D01*
X150733953Y-98926903D02*
X151224952Y-98926903D01*
X151282717Y-98898021D01*
X151311599Y-98869139D01*
X151340481Y-98811374D01*
X151340481Y-98695845D01*
X151311599Y-98638080D01*
X151282717Y-98609198D01*
X151224952Y-98580316D01*
X150733953Y-98580316D01*
X150791718Y-98320375D02*
X150762836Y-98291493D01*
X150733953Y-98233728D01*
X150733953Y-98089317D01*
X150762836Y-98031552D01*
X150791718Y-98002670D01*
X150849482Y-97973788D01*
X150907247Y-97973788D01*
X150993894Y-98002670D01*
X151340481Y-98349258D01*
X151340481Y-97973788D01*
%TO.C,PU1*%
X152610481Y-104104529D02*
X152003953Y-104104529D01*
X152003953Y-103873471D01*
X152032836Y-103815706D01*
X152061718Y-103786824D01*
X152119482Y-103757941D01*
X152206129Y-103757941D01*
X152263894Y-103786824D01*
X152292776Y-103815706D01*
X152321658Y-103873471D01*
X152321658Y-104104529D01*
X152003953Y-103498001D02*
X152494952Y-103498001D01*
X152552717Y-103469119D01*
X152581599Y-103440236D01*
X152610481Y-103382472D01*
X152610481Y-103266943D01*
X152581599Y-103209178D01*
X152552717Y-103180296D01*
X152494952Y-103151413D01*
X152003953Y-103151413D01*
X152610481Y-102544885D02*
X152610481Y-102891473D01*
X152610481Y-102718179D02*
X152003953Y-102718179D01*
X152090600Y-102775944D01*
X152148365Y-102833708D01*
X152177247Y-102891473D01*
D18*
%TO.C,U3*%
X155191000Y-102505200D02*
X155191000Y-101905200D01*
X155191000Y-102505200D02*
G75*
G03*
X155191000Y-101905200I0J300000D01*
G01*
X155791000Y-101605200D02*
X155791000Y-104405200D01*
X152991000Y-101605200D02*
X155791000Y-101605200D01*
X152991000Y-104405200D02*
X152991000Y-101605200D01*
X155791000Y-104405200D02*
X152991000Y-104405200D01*
D19*
%TO.C,TCXO0*%
X154001100Y-95553600D02*
X154001100Y-96053600D01*
X150801100Y-95553600D02*
X150801100Y-96053600D01*
X151581100Y-97053600D02*
X153181100Y-97053600D01*
X151581100Y-94553600D02*
X153231100Y-94553600D01*
D18*
%TO.C,ISP0*%
X146735500Y-110505200D02*
X148005500Y-110505200D01*
X148005500Y-110840200D02*
X146735500Y-110840200D01*
X145465500Y-110840200D02*
X144195500Y-110840200D01*
X142925500Y-110840200D02*
X141655500Y-110840200D01*
X141020500Y-115285200D02*
X141020500Y-111475200D01*
X143560500Y-115285200D02*
X143560500Y-111475200D01*
X146100500Y-115285200D02*
X146100500Y-111475200D01*
X141655500Y-115920200D02*
X141020500Y-115285200D01*
X142925500Y-115920200D02*
X141655500Y-115920200D01*
X143560500Y-115285200D02*
X142925500Y-115920200D01*
X144195500Y-115920200D02*
X143560500Y-115285200D01*
X145465500Y-115920200D02*
X144195500Y-115920200D01*
X146100500Y-115285200D02*
X145465500Y-115920200D01*
X146735500Y-115920200D02*
X146100500Y-115285200D01*
X148005500Y-115920200D02*
X146735500Y-115920200D01*
X148640500Y-115285200D02*
X148005500Y-115920200D01*
X148640500Y-111475200D02*
X148640500Y-115285200D01*
X141655500Y-110840200D02*
X141020500Y-111475200D01*
X143560500Y-111475200D02*
X142925500Y-110840200D01*
X144195500Y-110840200D02*
X143560500Y-111475200D01*
X146100500Y-111475200D02*
X145465500Y-110840200D01*
X146735500Y-110840200D02*
X146100500Y-111475200D01*
X148640500Y-111475200D02*
X148005500Y-110840200D01*
D20*
%TO.C,U4*%
X148336300Y-103443600D02*
X148641100Y-103443600D01*
X143561100Y-103138800D02*
X143561100Y-103443600D01*
X143865900Y-98363600D02*
X143561100Y-98363600D01*
X148641100Y-98668400D02*
X148641100Y-98363600D01*
X143561100Y-98363600D02*
X143561100Y-98668400D01*
X143561100Y-103443600D02*
X143865900Y-103443600D01*
X148641100Y-103443600D02*
X148641100Y-103138800D01*
X148641100Y-98363600D02*
X148336300Y-98363600D01*
D18*
%TO.C,Y1*%
X146551100Y-96703600D02*
X146301100Y-96703600D01*
X146551100Y-94503600D02*
X146301100Y-94503600D01*
X146551100Y-96703600D02*
X146551100Y-94503600D01*
X142101100Y-96703600D02*
X141851100Y-96703600D01*
X142101100Y-94503600D02*
X141851100Y-94503600D01*
X141851100Y-96703600D02*
X141851100Y-94503600D01*
%TD*%
M02*
