%TF.GenerationSoftware,KiCad,Pcbnew,6.0.5-a6ca702e91~116~ubuntu20.04.1*%
%TF.CreationDate,2022-05-09T20:04:06+03:00*%
%TF.ProjectId,ict_v361-xs,6963745f-7633-4363-912d-78732e6b6963,rev?*%
%TF.SameCoordinates,Original*%
%TF.FileFunction,Legend,Bot*%
%TF.FilePolarity,Positive*%
%FSLAX46Y46*%
G04 Gerber Fmt 4.6, Leading zero omitted, Abs format (unit mm)*
G04 Created by KiCad (PCBNEW 6.0.5-a6ca702e91~116~ubuntu20.04.1) date 2022-05-09 20:04:06*
%MOMM*%
%LPD*%
G01*
G04 APERTURE LIST*
%ADD10C,0.105000*%
%ADD11C,0.203200*%
%ADD12C,0.121920*%
%ADD13C,0.100000*%
%ADD14C,0.600000*%
G04 APERTURE END LIST*
D10*
X153783283Y-104210466D02*
X153783283Y-104692133D01*
X153754950Y-104748800D01*
X153726616Y-104777133D01*
X153669950Y-104805466D01*
X153556616Y-104805466D01*
X153499950Y-104777133D01*
X153471616Y-104748800D01*
X153443283Y-104692133D01*
X153443283Y-104210466D01*
X152904950Y-104408800D02*
X152904950Y-104805466D01*
X153046616Y-104182133D02*
X153188283Y-104607133D01*
X152819950Y-104607133D01*
D11*
X145630900Y-106550200D02*
X146138900Y-106728000D01*
X146138900Y-106728000D02*
X145630900Y-106880400D01*
X145630900Y-106880400D02*
X145630900Y-106550200D01*
X145630900Y-106550200D02*
X145732500Y-106778800D01*
X145732500Y-106778800D02*
X145859500Y-106702600D01*
D12*
%TO.C,U$2*%
X150336070Y-97041093D02*
X150895354Y-97041093D01*
X150961152Y-97073992D01*
X150994051Y-97106891D01*
X151026950Y-97172689D01*
X151026950Y-97304285D01*
X150994051Y-97370083D01*
X150961152Y-97402982D01*
X150895354Y-97435881D01*
X150336070Y-97435881D01*
X150665061Y-97995165D02*
X150697960Y-98093862D01*
X150730859Y-98126761D01*
X150796657Y-98159660D01*
X150895354Y-98159660D01*
X150961152Y-98126761D01*
X150994051Y-98093862D01*
X151026950Y-98028064D01*
X151026950Y-97764872D01*
X150336070Y-97764872D01*
X150336070Y-97995165D01*
X150368970Y-98060963D01*
X150401869Y-98093862D01*
X150467667Y-98126761D01*
X150533465Y-98126761D01*
X150599263Y-98093862D01*
X150632162Y-98060963D01*
X150665061Y-97995165D01*
X150665061Y-97764872D01*
X151026950Y-98784742D02*
X151026950Y-98455752D01*
X150336070Y-98455752D01*
X150336070Y-99146632D02*
X150336070Y-99278228D01*
X150368970Y-99344026D01*
X150434768Y-99409824D01*
X150566364Y-99442723D01*
X150796657Y-99442723D01*
X150928253Y-99409824D01*
X150994051Y-99344026D01*
X151026950Y-99278228D01*
X151026950Y-99146632D01*
X150994051Y-99080834D01*
X150928253Y-99015036D01*
X150796657Y-98982137D01*
X150566364Y-98982137D01*
X150434768Y-99015036D01*
X150368970Y-99080834D01*
X150336070Y-99146632D01*
X150336070Y-99673017D02*
X151026950Y-100133603D01*
X150336070Y-100133603D02*
X151026950Y-99673017D01*
D13*
X143051100Y-95003600D02*
X143051100Y-94753600D01*
X143051100Y-94753600D02*
X152751100Y-94753600D01*
X152751100Y-95003600D02*
X152751100Y-94753600D01*
X143051100Y-104853600D02*
X152751100Y-104853600D01*
X152751100Y-104853600D02*
X152751100Y-104703600D01*
X143051100Y-104853600D02*
X143051100Y-104703600D01*
D14*
X150851100Y-95953600D02*
G75*
G03*
X150851100Y-95953600I-300000J0D01*
G01*
%TD*%
M02*
