%TF.GenerationSoftware,KiCad,Pcbnew,6.0.5-a6ca702e91~116~ubuntu20.04.1*%
%TF.CreationDate,2022-05-09T20:04:05+03:00*%
%TF.ProjectId,ict_v361-xs,6963745f-7633-4363-912d-78732e6b6963,rev?*%
%TF.SameCoordinates,Original*%
%TF.FileFunction,Copper,L2,Bot*%
%TF.FilePolarity,Positive*%
%FSLAX46Y46*%
G04 Gerber Fmt 4.6, Leading zero omitted, Abs format (unit mm)*
G04 Created by KiCad (PCBNEW 6.0.5-a6ca702e91~116~ubuntu20.04.1) date 2022-05-09 20:04:05*
%MOMM*%
%LPD*%
G01*
G04 APERTURE LIST*
G04 Aperture macros list*
%AMOutline5P*
0 Free polygon, 5 corners , with rotation*
0 The origin of the aperture is its center*
0 number of corners: always 5*
0 $1 to $10 corner X, Y*
0 $11 Rotation angle, in degrees counterclockwise*
0 create outline with 5 corners*
4,1,5,$1,$2,$3,$4,$5,$6,$7,$8,$9,$10,$1,$2,$11*%
%AMOutline6P*
0 Free polygon, 6 corners , with rotation*
0 The origin of the aperture is its center*
0 number of corners: always 6*
0 $1 to $12 corner X, Y*
0 $13 Rotation angle, in degrees counterclockwise*
0 create outline with 6 corners*
4,1,6,$1,$2,$3,$4,$5,$6,$7,$8,$9,$10,$11,$12,$1,$2,$13*%
%AMOutline7P*
0 Free polygon, 7 corners , with rotation*
0 The origin of the aperture is its center*
0 number of corners: always 7*
0 $1 to $14 corner X, Y*
0 $15 Rotation angle, in degrees counterclockwise*
0 create outline with 7 corners*
4,1,7,$1,$2,$3,$4,$5,$6,$7,$8,$9,$10,$11,$12,$13,$14,$1,$2,$15*%
%AMOutline8P*
0 Free polygon, 8 corners , with rotation*
0 The origin of the aperture is its center*
0 number of corners: always 8*
0 $1 to $16 corner X, Y*
0 $17 Rotation angle, in degrees counterclockwise*
0 create outline with 8 corners*
4,1,8,$1,$2,$3,$4,$5,$6,$7,$8,$9,$10,$11,$12,$13,$14,$15,$16,$1,$2,$17*%
G04 Aperture macros list end*
%TA.AperFunction,ComponentPad*%
%ADD10Outline8P,-0.939800X0.469900X-0.469900X0.939800X0.469900X0.939800X0.939800X0.469900X0.939800X-0.469900X0.469900X-0.939800X-0.469900X-0.939800X-0.939800X-0.469900X180.000000*%
%TD*%
%TA.AperFunction,SMDPad,CuDef*%
%ADD11R,1.800000X0.800000*%
%TD*%
%TA.AperFunction,SMDPad,CuDef*%
%ADD12R,1.800000X0.700000*%
%TD*%
%TA.AperFunction,ViaPad*%
%ADD13C,1.000000*%
%TD*%
%TA.AperFunction,ViaPad*%
%ADD14C,0.502400*%
%TD*%
%TA.AperFunction,ViaPad*%
%ADD15C,1.200000*%
%TD*%
%TA.AperFunction,ViaPad*%
%ADD16C,0.700000*%
%TD*%
%TA.AperFunction,Conductor*%
%ADD17C,0.203200*%
%TD*%
%TA.AperFunction,Conductor*%
%ADD18C,0.508000*%
%TD*%
G04 APERTURE END LIST*
D10*
%TO.P,ISP0,6*%
%TO.N,GND*%
X142290500Y-114650200D03*
%TO.P,ISP0,5*%
%TO.N,RESET*%
X142290500Y-112110200D03*
%TO.P,ISP0,4*%
%TO.N,MOSI*%
X144830500Y-114650200D03*
%TO.P,ISP0,3*%
%TO.N,SCK*%
X144830500Y-112110200D03*
%TO.P,ISP0,2*%
%TO.N,VIN*%
X147370500Y-114650200D03*
%TO.P,ISP0,1*%
%TO.N,MISO*%
X147370500Y-112110200D03*
%TD*%
D11*
%TO.P,U$2,11_RF_IN*%
%TO.N,GPS*%
X143151100Y-103153600D03*
%TO.P,U$2,12_GND*%
%TO.N,GND*%
X143151100Y-102053600D03*
D12*
%TO.P,U$2,10_GND*%
X143151100Y-104203600D03*
D11*
%TO.P,U$2,8_VCC*%
%TO.N,GPS_POWER*%
X152651100Y-103153600D03*
%TO.P,U$2,7_VCC_IO*%
%TO.N,7_VCC_IO*%
X152651100Y-102053600D03*
%TO.P,U$2,6_V_BCKP*%
%TO.N,VIN*%
X152651100Y-100953600D03*
%TO.P,U$2,5_EXTINT0*%
%TO.N,GPS-OFF*%
X152651100Y-99853600D03*
%TO.P,U$2,4_TIMEPULSE*%
%TO.N,N/C*%
X152651100Y-98753600D03*
%TO.P,U$2,3_RXD1*%
%TO.N,SERIAL_OUT*%
X152651100Y-97653600D03*
%TO.P,U$2,2_TXD1*%
%TO.N,SERIAL_IN*%
X152651100Y-96553600D03*
D12*
%TO.P,U$2,1_GND*%
%TO.N,GND*%
X152651100Y-95503600D03*
%TO.P,U$2,9_V_RESET*%
%TO.N,9_V_RESET*%
X152651100Y-104203600D03*
%TD*%
D13*
%TO.N,SERIAL_IN*%
X156000000Y-96500000D03*
D14*
%TO.N,GPS_POWER*%
X149801100Y-102203600D03*
%TO.N,GPS-OFF*%
X148701100Y-98203600D03*
D15*
%TO.N,GPS*%
X140101100Y-103203600D03*
D14*
%TO.N,ENABLE*%
X142401100Y-99103600D03*
X147501100Y-97603600D03*
X154301100Y-99103600D03*
X155601100Y-99103600D03*
D15*
%TO.N,N$8*%
X140141100Y-97653600D03*
%TO.N,N$7*%
X140141100Y-96323600D03*
D14*
%TO.N,VIN*%
X145701100Y-97503600D03*
X145050700Y-104603600D03*
D15*
X152400000Y-105703600D03*
X151101100Y-105703600D03*
D13*
%TO.N,N$19*%
X155901100Y-94903600D03*
%TO.N,ANT*%
X157001100Y-98903600D03*
X157001100Y-100103600D03*
X157001100Y-101303600D03*
D14*
%TO.N,SERIAL_IN*%
X150101100Y-99303600D03*
%TO.N,SERIAL_OUT*%
X150101100Y-98503600D03*
%TO.N,RESET*%
X150101100Y-100603600D03*
%TO.N,GND*%
X156301100Y-104703600D03*
X156301100Y-102403600D03*
X149001100Y-96903600D03*
X154301100Y-98103600D03*
D16*
X140401100Y-114703600D03*
D14*
X146801100Y-95603600D03*
X156301100Y-105503600D03*
X157201100Y-104703600D03*
X157201100Y-103803600D03*
X157001100Y-94203600D03*
X149401100Y-94203600D03*
X156001100Y-97503600D03*
X157001100Y-95303600D03*
X157001100Y-96403600D03*
X157001100Y-97503600D03*
X146401100Y-101303600D03*
X145701100Y-101303600D03*
X145701100Y-100603600D03*
X146401100Y-100603600D03*
X148301100Y-104603600D03*
X147101100Y-104603600D03*
X140101100Y-105503600D03*
X140101100Y-104503600D03*
X144201100Y-97403600D03*
X140701100Y-107303600D03*
X141401100Y-94903600D03*
X141401100Y-96103600D03*
D15*
X148301100Y-105603600D03*
D14*
X141401100Y-98403600D03*
X141401100Y-99603600D03*
X141401100Y-104503600D03*
D15*
X146801100Y-105603600D03*
D14*
X141401100Y-100803600D03*
X141401100Y-102003600D03*
X141401100Y-105503600D03*
X149801100Y-103003600D03*
X140201100Y-94903600D03*
D15*
X140211100Y-100753600D03*
X140211100Y-99433600D03*
D14*
X157201100Y-105503600D03*
X154401100Y-106203600D03*
X141401100Y-97203600D03*
%TD*%
D17*
%TO.N,GPS_POWER*%
X150751100Y-103153600D02*
X149801100Y-102203600D01*
X152651100Y-103153600D02*
X150751100Y-103153600D01*
%TO.N,GPS-OFF*%
X149351100Y-99853600D02*
X152651100Y-99853600D01*
X149101100Y-99603600D02*
X149351100Y-99853600D01*
X149101100Y-98603600D02*
X149101100Y-99603600D01*
X148701100Y-98203600D02*
X149101100Y-98603600D01*
%TO.N,GPS*%
X143101100Y-103203600D02*
X143151100Y-103153600D01*
D18*
X140101100Y-103203600D02*
X143101100Y-103203600D01*
D17*
%TO.N,ENABLE*%
X142301100Y-99003600D02*
X142401100Y-99103600D01*
X142301100Y-97703600D02*
X142301100Y-99003600D01*
X143601100Y-96403600D02*
X142301100Y-97703600D01*
X146301100Y-96403600D02*
X143601100Y-96403600D01*
X147501100Y-97603600D02*
X146301100Y-96403600D01*
X154301100Y-99103600D02*
X155601100Y-99103600D01*
%TO.N,VIN*%
X154301100Y-101580313D02*
X154301100Y-104603600D01*
X153201100Y-105703600D02*
X152201100Y-105703600D01*
X154301100Y-104603600D02*
X153201100Y-105703600D01*
X153745787Y-101025000D02*
X154301100Y-101580313D01*
X152722500Y-101025000D02*
X153745787Y-101025000D01*
X152651100Y-100953600D02*
X152722500Y-101025000D01*
X145050700Y-98254000D02*
X145050700Y-104603600D01*
X145701100Y-97503600D02*
X145050700Y-98254000D01*
%TO.N,SERIAL_IN*%
X149601100Y-98903600D02*
X149601100Y-96903600D01*
X150101100Y-99303600D02*
X149601100Y-98903600D01*
X149951100Y-96553600D02*
X155651100Y-96553600D01*
X149601100Y-96903600D02*
X149951100Y-96553600D01*
%TO.N,SERIAL_OUT*%
X152651100Y-97653600D02*
X150951100Y-97653600D01*
X150951100Y-97653600D02*
X150101100Y-98503600D01*
%TO.N,RESET*%
X145901100Y-108361300D02*
X142309100Y-111953300D01*
X145901100Y-104803600D02*
X145901100Y-108361300D01*
X142309100Y-111953300D02*
X142290500Y-112110200D01*
X145901100Y-104803600D02*
X150101100Y-100603600D01*
%TD*%
%TA.AperFunction,Conductor*%
%TO.N,GND*%
G36*
X157784414Y-93720286D02*
G01*
X157799000Y-93755500D01*
X157799000Y-106851700D01*
X157784414Y-106886914D01*
X157749200Y-106901500D01*
X147067926Y-106901500D01*
X147061543Y-106906137D01*
X147061544Y-106906137D01*
X147060550Y-106906859D01*
X147046669Y-106913931D01*
X147045502Y-106914310D01*
X147045499Y-106914312D01*
X147037999Y-106916749D01*
X147033363Y-106923130D01*
X147033362Y-106923131D01*
X147032640Y-106924125D01*
X147021625Y-106935140D01*
X147014249Y-106940499D01*
X147011812Y-106947999D01*
X147011810Y-106948002D01*
X147011431Y-106949169D01*
X147004359Y-106963050D01*
X146999000Y-106970426D01*
X146999000Y-110036774D01*
X147003637Y-110043156D01*
X147004359Y-110044150D01*
X147011431Y-110058031D01*
X147011810Y-110059198D01*
X147011812Y-110059201D01*
X147014249Y-110066701D01*
X147020630Y-110071337D01*
X147020631Y-110071338D01*
X147021625Y-110072060D01*
X147032640Y-110083075D01*
X147037999Y-110090451D01*
X147045499Y-110092888D01*
X147045502Y-110092890D01*
X147046669Y-110093269D01*
X147060550Y-110100341D01*
X147067926Y-110105700D01*
X149649200Y-110105700D01*
X149684414Y-110120286D01*
X149699000Y-110155500D01*
X149699000Y-116251700D01*
X149684414Y-116286914D01*
X149649200Y-116301500D01*
X139253000Y-116301500D01*
X139217786Y-116286914D01*
X139203200Y-116251700D01*
X139203200Y-115142680D01*
X141097500Y-115142680D01*
X141097985Y-115147567D01*
X141111403Y-115214508D01*
X141115089Y-115223378D01*
X141152596Y-115279405D01*
X141155672Y-115283150D01*
X141657533Y-115785013D01*
X141661324Y-115788119D01*
X141718147Y-115825966D01*
X141727026Y-115829632D01*
X141793160Y-115842727D01*
X141797989Y-115843200D01*
X142153994Y-115843200D01*
X142160999Y-115840299D01*
X142163900Y-115833294D01*
X142417100Y-115833294D01*
X142420001Y-115840299D01*
X142427006Y-115843200D01*
X142782980Y-115843200D01*
X142787867Y-115842715D01*
X142854808Y-115829297D01*
X142863678Y-115825611D01*
X142919705Y-115788104D01*
X142923450Y-115785028D01*
X143425313Y-115283167D01*
X143428419Y-115279376D01*
X143466266Y-115222553D01*
X143469932Y-115213674D01*
X143483027Y-115147540D01*
X143483500Y-115142711D01*
X143483500Y-114786706D01*
X143480599Y-114779701D01*
X143473594Y-114776800D01*
X142427006Y-114776800D01*
X142420001Y-114779701D01*
X142417100Y-114786706D01*
X142417100Y-115833294D01*
X142163900Y-115833294D01*
X142163900Y-114786706D01*
X142160999Y-114779701D01*
X142153994Y-114776800D01*
X141107406Y-114776800D01*
X141100401Y-114779701D01*
X141097500Y-114786706D01*
X141097500Y-115142680D01*
X139203200Y-115142680D01*
X139203200Y-114513694D01*
X141097500Y-114513694D01*
X141100401Y-114520699D01*
X141107406Y-114523600D01*
X142153994Y-114523600D01*
X142160999Y-114520699D01*
X142163900Y-114513694D01*
X142417100Y-114513694D01*
X142420001Y-114520699D01*
X142427006Y-114523600D01*
X143473594Y-114523600D01*
X143480599Y-114520699D01*
X143483500Y-114513694D01*
X143483500Y-114167684D01*
X143763200Y-114167684D01*
X143763201Y-115132713D01*
X143770685Y-115170057D01*
X143791625Y-115201337D01*
X144279366Y-115689078D01*
X144311062Y-115710189D01*
X144315865Y-115711140D01*
X144345594Y-115717027D01*
X144345596Y-115717027D01*
X144347984Y-115717500D01*
X144827647Y-115717500D01*
X145313013Y-115717499D01*
X145350357Y-115710015D01*
X145377149Y-115692080D01*
X145379607Y-115690434D01*
X145381637Y-115689075D01*
X145869378Y-115201334D01*
X145890489Y-115169638D01*
X145895827Y-115142680D01*
X145897327Y-115135106D01*
X145897327Y-115135104D01*
X145897800Y-115132716D01*
X145897799Y-114167687D01*
X145897798Y-114167684D01*
X146303200Y-114167684D01*
X146303201Y-115132713D01*
X146310685Y-115170057D01*
X146331625Y-115201337D01*
X146819366Y-115689078D01*
X146851062Y-115710189D01*
X146855865Y-115711140D01*
X146885594Y-115717027D01*
X146885596Y-115717027D01*
X146887984Y-115717500D01*
X147367647Y-115717500D01*
X147853013Y-115717499D01*
X147890357Y-115710015D01*
X147917149Y-115692080D01*
X147919607Y-115690434D01*
X147921637Y-115689075D01*
X148409378Y-115201334D01*
X148430489Y-115169638D01*
X148435827Y-115142680D01*
X148437327Y-115135106D01*
X148437327Y-115135104D01*
X148437800Y-115132716D01*
X148437799Y-114167687D01*
X148430315Y-114130343D01*
X148409375Y-114099063D01*
X147921634Y-113611322D01*
X147889938Y-113590211D01*
X147880014Y-113588246D01*
X147855406Y-113583373D01*
X147855404Y-113583373D01*
X147853016Y-113582900D01*
X147373353Y-113582900D01*
X146887987Y-113582901D01*
X146850643Y-113590385D01*
X146823851Y-113608320D01*
X146821407Y-113609957D01*
X146819363Y-113611325D01*
X146331622Y-114099066D01*
X146310511Y-114130762D01*
X146309560Y-114135565D01*
X146303679Y-114165267D01*
X146303200Y-114167684D01*
X145897798Y-114167684D01*
X145890315Y-114130343D01*
X145869375Y-114099063D01*
X145381634Y-113611322D01*
X145349938Y-113590211D01*
X145340014Y-113588246D01*
X145315406Y-113583373D01*
X145315404Y-113583373D01*
X145313016Y-113582900D01*
X144833353Y-113582900D01*
X144347987Y-113582901D01*
X144310643Y-113590385D01*
X144283851Y-113608320D01*
X144281407Y-113609957D01*
X144279363Y-113611325D01*
X143791622Y-114099066D01*
X143770511Y-114130762D01*
X143769560Y-114135565D01*
X143763679Y-114165267D01*
X143763200Y-114167684D01*
X143483500Y-114167684D01*
X143483500Y-114157720D01*
X143483015Y-114152833D01*
X143469597Y-114085892D01*
X143465911Y-114077022D01*
X143428404Y-114020995D01*
X143425328Y-114017250D01*
X142923467Y-113515387D01*
X142919676Y-113512281D01*
X142862853Y-113474434D01*
X142853974Y-113470768D01*
X142787840Y-113457673D01*
X142783011Y-113457200D01*
X142427006Y-113457200D01*
X142420001Y-113460101D01*
X142417100Y-113467106D01*
X142417100Y-114513694D01*
X142163900Y-114513694D01*
X142163900Y-113467106D01*
X142160999Y-113460101D01*
X142153994Y-113457200D01*
X141798020Y-113457200D01*
X141793133Y-113457685D01*
X141726192Y-113471103D01*
X141717322Y-113474789D01*
X141661295Y-113512296D01*
X141657550Y-113515372D01*
X141155687Y-114017233D01*
X141152581Y-114021024D01*
X141114734Y-114077847D01*
X141111068Y-114086726D01*
X141097973Y-114152860D01*
X141097500Y-114157689D01*
X141097500Y-114513694D01*
X139203200Y-114513694D01*
X139203200Y-111627684D01*
X141223200Y-111627684D01*
X141223201Y-112592713D01*
X141230685Y-112630057D01*
X141251625Y-112661337D01*
X141739366Y-113149078D01*
X141771062Y-113170189D01*
X141775865Y-113171140D01*
X141805594Y-113177027D01*
X141805596Y-113177027D01*
X141807984Y-113177500D01*
X142287647Y-113177500D01*
X142773013Y-113177499D01*
X142810357Y-113170015D01*
X142837149Y-113152080D01*
X142839607Y-113150434D01*
X142841637Y-113149075D01*
X143329378Y-112661334D01*
X143350489Y-112629638D01*
X143352454Y-112619714D01*
X143357327Y-112595106D01*
X143357327Y-112595104D01*
X143357800Y-112592716D01*
X143357799Y-111627687D01*
X143357798Y-111627684D01*
X143763200Y-111627684D01*
X143763201Y-112592713D01*
X143770685Y-112630057D01*
X143791625Y-112661337D01*
X144279366Y-113149078D01*
X144311062Y-113170189D01*
X144315865Y-113171140D01*
X144345594Y-113177027D01*
X144345596Y-113177027D01*
X144347984Y-113177500D01*
X144827647Y-113177500D01*
X145313013Y-113177499D01*
X145350357Y-113170015D01*
X145377149Y-113152080D01*
X145379607Y-113150434D01*
X145381637Y-113149075D01*
X145869378Y-112661334D01*
X145890489Y-112629638D01*
X145892454Y-112619714D01*
X145897327Y-112595106D01*
X145897327Y-112595104D01*
X145897800Y-112592716D01*
X145897799Y-111627687D01*
X145897798Y-111627684D01*
X146303200Y-111627684D01*
X146303201Y-112592713D01*
X146310685Y-112630057D01*
X146331625Y-112661337D01*
X146819366Y-113149078D01*
X146851062Y-113170189D01*
X146855865Y-113171140D01*
X146885594Y-113177027D01*
X146885596Y-113177027D01*
X146887984Y-113177500D01*
X147367647Y-113177500D01*
X147853013Y-113177499D01*
X147890357Y-113170015D01*
X147917149Y-113152080D01*
X147919607Y-113150434D01*
X147921637Y-113149075D01*
X148409378Y-112661334D01*
X148430489Y-112629638D01*
X148432454Y-112619714D01*
X148437327Y-112595106D01*
X148437327Y-112595104D01*
X148437800Y-112592716D01*
X148437799Y-111627687D01*
X148430315Y-111590343D01*
X148409375Y-111559063D01*
X147921634Y-111071322D01*
X147889938Y-111050211D01*
X147880014Y-111048246D01*
X147855406Y-111043373D01*
X147855404Y-111043373D01*
X147853016Y-111042900D01*
X147373353Y-111042900D01*
X146887987Y-111042901D01*
X146850643Y-111050385D01*
X146837964Y-111058873D01*
X146821407Y-111069957D01*
X146819363Y-111071325D01*
X146331622Y-111559066D01*
X146310511Y-111590762D01*
X146309560Y-111595565D01*
X146303679Y-111625267D01*
X146303200Y-111627684D01*
X145897798Y-111627684D01*
X145890315Y-111590343D01*
X145869375Y-111559063D01*
X145381634Y-111071322D01*
X145349938Y-111050211D01*
X145340014Y-111048246D01*
X145315406Y-111043373D01*
X145315404Y-111043373D01*
X145313016Y-111042900D01*
X144833353Y-111042900D01*
X144347987Y-111042901D01*
X144310643Y-111050385D01*
X144297964Y-111058873D01*
X144281407Y-111069957D01*
X144279363Y-111071325D01*
X143791622Y-111559066D01*
X143770511Y-111590762D01*
X143769560Y-111595565D01*
X143763679Y-111625267D01*
X143763200Y-111627684D01*
X143357798Y-111627684D01*
X143350315Y-111590343D01*
X143329375Y-111559063D01*
X143213568Y-111443256D01*
X143198982Y-111408042D01*
X143213568Y-111372828D01*
X144629728Y-109956669D01*
X146057939Y-108528458D01*
X146059830Y-108526663D01*
X146086698Y-108502471D01*
X146086698Y-108502470D01*
X146090586Y-108498970D01*
X146101470Y-108474525D01*
X146105187Y-108467679D01*
X146119761Y-108445236D01*
X146121634Y-108433409D01*
X146125327Y-108420941D01*
X146128070Y-108414781D01*
X146130200Y-108409997D01*
X146130200Y-108383249D01*
X146130813Y-108375458D01*
X146134178Y-108354213D01*
X146134997Y-108349042D01*
X146131897Y-108337472D01*
X146130200Y-108324583D01*
X146130200Y-104919124D01*
X146144786Y-104883910D01*
X149971007Y-101057690D01*
X150006221Y-101043104D01*
X150021067Y-101045369D01*
X150029141Y-101047891D01*
X150032686Y-101047956D01*
X150153183Y-101050165D01*
X150156731Y-101050230D01*
X150165310Y-101047891D01*
X150276428Y-101017597D01*
X150276430Y-101017596D01*
X150279849Y-101016664D01*
X150320538Y-100991681D01*
X150385580Y-100951745D01*
X150385583Y-100951743D01*
X150388597Y-100949892D01*
X150444572Y-100888052D01*
X150471854Y-100857912D01*
X150471856Y-100857910D01*
X150474234Y-100855282D01*
X150529875Y-100740440D01*
X150551047Y-100614596D01*
X150551181Y-100603600D01*
X150550394Y-100598101D01*
X150533593Y-100480789D01*
X150533090Y-100477277D01*
X150480272Y-100361110D01*
X150396972Y-100264435D01*
X150289887Y-100195027D01*
X150240349Y-100180212D01*
X150210791Y-100156148D01*
X150206906Y-100118231D01*
X150230970Y-100088673D01*
X150254618Y-100082700D01*
X151573800Y-100082700D01*
X151609014Y-100097286D01*
X151623600Y-100132500D01*
X151623600Y-100266158D01*
X151630998Y-100303348D01*
X151659178Y-100345522D01*
X151663256Y-100348247D01*
X151663257Y-100348248D01*
X151684127Y-100362193D01*
X151705303Y-100393884D01*
X151697867Y-100431267D01*
X151684127Y-100445007D01*
X151663257Y-100458952D01*
X151663256Y-100458953D01*
X151659178Y-100461678D01*
X151630998Y-100503852D01*
X151630041Y-100508661D01*
X151630041Y-100508662D01*
X151628053Y-100518655D01*
X151623600Y-100541042D01*
X151623600Y-101366158D01*
X151624077Y-101368556D01*
X151628811Y-101392352D01*
X151630998Y-101403348D01*
X151659178Y-101445522D01*
X151663256Y-101448247D01*
X151663257Y-101448248D01*
X151684127Y-101462193D01*
X151705303Y-101493884D01*
X151697867Y-101531267D01*
X151684127Y-101545007D01*
X151663257Y-101558952D01*
X151663256Y-101558953D01*
X151659178Y-101561678D01*
X151630998Y-101603852D01*
X151623600Y-101641042D01*
X151623600Y-102466158D01*
X151624077Y-102468556D01*
X151628238Y-102489471D01*
X151630998Y-102503348D01*
X151659178Y-102545522D01*
X151663256Y-102548247D01*
X151663257Y-102548248D01*
X151684127Y-102562193D01*
X151705303Y-102593884D01*
X151697867Y-102631267D01*
X151684127Y-102645007D01*
X151663257Y-102658952D01*
X151663256Y-102658953D01*
X151659178Y-102661678D01*
X151630998Y-102703852D01*
X151623600Y-102741042D01*
X151623600Y-102874700D01*
X151609014Y-102909914D01*
X151573800Y-102924500D01*
X150866624Y-102924500D01*
X150831410Y-102909914D01*
X150252648Y-102331152D01*
X150238062Y-102295938D01*
X150238752Y-102287676D01*
X150250728Y-102216490D01*
X150251047Y-102214596D01*
X150251181Y-102203600D01*
X150250394Y-102198101D01*
X150233593Y-102080789D01*
X150233090Y-102077277D01*
X150180272Y-101961110D01*
X150096972Y-101864435D01*
X149989887Y-101795027D01*
X149867626Y-101758463D01*
X149864079Y-101758441D01*
X149864077Y-101758441D01*
X149806127Y-101758087D01*
X149740017Y-101757683D01*
X149617318Y-101792751D01*
X149509394Y-101860846D01*
X149483745Y-101889888D01*
X149446377Y-101932199D01*
X149424919Y-101956495D01*
X149396353Y-102017338D01*
X149372193Y-102068796D01*
X149372192Y-102068799D01*
X149370685Y-102072009D01*
X149351053Y-102198101D01*
X149367599Y-102324636D01*
X149418994Y-102441440D01*
X149501106Y-102539125D01*
X149607335Y-102609836D01*
X149610723Y-102610894D01*
X149610724Y-102610895D01*
X149661297Y-102626695D01*
X149729141Y-102647891D01*
X149732686Y-102647956D01*
X149853183Y-102650165D01*
X149856731Y-102650230D01*
X149881500Y-102643477D01*
X149919310Y-102648287D01*
X149929813Y-102656309D01*
X150583942Y-103310439D01*
X150585737Y-103312330D01*
X150613430Y-103343086D01*
X150618210Y-103345214D01*
X150618211Y-103345215D01*
X150637859Y-103353963D01*
X150644725Y-103357691D01*
X150662773Y-103369411D01*
X150662775Y-103369412D01*
X150667164Y-103372262D01*
X150672330Y-103373080D01*
X150672332Y-103373081D01*
X150676740Y-103373779D01*
X150678997Y-103374136D01*
X150691461Y-103377828D01*
X150702403Y-103382700D01*
X150729150Y-103382700D01*
X150736941Y-103383313D01*
X150763358Y-103387497D01*
X150768415Y-103386142D01*
X150768416Y-103386142D01*
X150774928Y-103384397D01*
X150787817Y-103382700D01*
X151573800Y-103382700D01*
X151609014Y-103397286D01*
X151623600Y-103432500D01*
X151623600Y-103566158D01*
X151624077Y-103568556D01*
X151627564Y-103586083D01*
X151630998Y-103603348D01*
X151633723Y-103607426D01*
X151652081Y-103634900D01*
X151659178Y-103645522D01*
X151663256Y-103648247D01*
X151663257Y-103648248D01*
X151684127Y-103662193D01*
X151705303Y-103693884D01*
X151697867Y-103731267D01*
X151684127Y-103745007D01*
X151663257Y-103758952D01*
X151663256Y-103758953D01*
X151659178Y-103761678D01*
X151656453Y-103765756D01*
X151645088Y-103782765D01*
X151630998Y-103803852D01*
X151623600Y-103841042D01*
X151623600Y-104566158D01*
X151624077Y-104568556D01*
X151627604Y-104586284D01*
X151630998Y-104603348D01*
X151659178Y-104645522D01*
X151701352Y-104673702D01*
X151706161Y-104674659D01*
X151706162Y-104674659D01*
X151736144Y-104680623D01*
X151738542Y-104681100D01*
X153563658Y-104681100D01*
X153566056Y-104680623D01*
X153596038Y-104674659D01*
X153596039Y-104674659D01*
X153600848Y-104673702D01*
X153643022Y-104645522D01*
X153671202Y-104603348D01*
X153674597Y-104586284D01*
X153678123Y-104568556D01*
X153678600Y-104566158D01*
X153678600Y-103841042D01*
X153671202Y-103803852D01*
X153657112Y-103782765D01*
X153645747Y-103765756D01*
X153643022Y-103761678D01*
X153638944Y-103758953D01*
X153638943Y-103758952D01*
X153618073Y-103745007D01*
X153596897Y-103713316D01*
X153604333Y-103675933D01*
X153618073Y-103662193D01*
X153638943Y-103648248D01*
X153638944Y-103648247D01*
X153643022Y-103645522D01*
X153650120Y-103634900D01*
X153668477Y-103607426D01*
X153671202Y-103603348D01*
X153674637Y-103586083D01*
X153678123Y-103568556D01*
X153678600Y-103566158D01*
X153678600Y-102741042D01*
X153671202Y-102703852D01*
X153643022Y-102661678D01*
X153638944Y-102658953D01*
X153638943Y-102658952D01*
X153618073Y-102645007D01*
X153596897Y-102613316D01*
X153604333Y-102575933D01*
X153618073Y-102562193D01*
X153638943Y-102548248D01*
X153638944Y-102548247D01*
X153643022Y-102545522D01*
X153671202Y-102503348D01*
X153673963Y-102489471D01*
X153678123Y-102468556D01*
X153678600Y-102466158D01*
X153678600Y-101641042D01*
X153671202Y-101603852D01*
X153643022Y-101561678D01*
X153638944Y-101558953D01*
X153638943Y-101558952D01*
X153618073Y-101545007D01*
X153596897Y-101513316D01*
X153604333Y-101475933D01*
X153618073Y-101462193D01*
X153638943Y-101448248D01*
X153638944Y-101448247D01*
X153643022Y-101445522D01*
X153671202Y-101403348D01*
X153674418Y-101387181D01*
X153695595Y-101355490D01*
X153732978Y-101348055D01*
X153758475Y-101361684D01*
X154057414Y-101660623D01*
X154072000Y-101695837D01*
X154072000Y-104488076D01*
X154057414Y-104523290D01*
X153150774Y-105429929D01*
X153115560Y-105444515D01*
X153080346Y-105429929D01*
X153068530Y-105411092D01*
X153061150Y-105389897D01*
X153061147Y-105389891D01*
X153060234Y-105387269D01*
X152973744Y-105248856D01*
X152858739Y-105133044D01*
X152856398Y-105131558D01*
X152856395Y-105131556D01*
X152728142Y-105050165D01*
X152720933Y-105045590D01*
X152567176Y-104990840D01*
X152405111Y-104971515D01*
X152402342Y-104971806D01*
X152402340Y-104971806D01*
X152245559Y-104988284D01*
X152245557Y-104988284D01*
X152242792Y-104988575D01*
X152240162Y-104989470D01*
X152240159Y-104989471D01*
X152090923Y-105040275D01*
X152090921Y-105040276D01*
X152088286Y-105041173D01*
X152085916Y-105042631D01*
X152085914Y-105042632D01*
X152073564Y-105050230D01*
X151949272Y-105126695D01*
X151832661Y-105240889D01*
X151831154Y-105243228D01*
X151831152Y-105243230D01*
X151792516Y-105303182D01*
X151761180Y-105324880D01*
X151723679Y-105318065D01*
X151708423Y-105302594D01*
X151676322Y-105251220D01*
X151676318Y-105251215D01*
X151674844Y-105248856D01*
X151559839Y-105133044D01*
X151557498Y-105131558D01*
X151557495Y-105131556D01*
X151429242Y-105050165D01*
X151422033Y-105045590D01*
X151268276Y-104990840D01*
X151106211Y-104971515D01*
X151103442Y-104971806D01*
X151103440Y-104971806D01*
X150946659Y-104988284D01*
X150946657Y-104988284D01*
X150943892Y-104988575D01*
X150941262Y-104989470D01*
X150941259Y-104989471D01*
X150792023Y-105040275D01*
X150792021Y-105040276D01*
X150789386Y-105041173D01*
X150787016Y-105042631D01*
X150787014Y-105042632D01*
X150774664Y-105050230D01*
X150650372Y-105126695D01*
X150533761Y-105240889D01*
X150532254Y-105243228D01*
X150532252Y-105243230D01*
X150451107Y-105369143D01*
X150445347Y-105378081D01*
X150444396Y-105380694D01*
X150444395Y-105380696D01*
X150426476Y-105429929D01*
X150389524Y-105531452D01*
X150369068Y-105693378D01*
X150384995Y-105855813D01*
X150385874Y-105858454D01*
X150385874Y-105858456D01*
X150405538Y-105917569D01*
X150436513Y-106010682D01*
X150521062Y-106150289D01*
X150522998Y-106152294D01*
X150522999Y-106152295D01*
X150632508Y-106265695D01*
X150632511Y-106265698D01*
X150634440Y-106267695D01*
X150636762Y-106269214D01*
X150636765Y-106269217D01*
X150724118Y-106326379D01*
X150771011Y-106357065D01*
X150802808Y-106368890D01*
X150921379Y-106412986D01*
X150921381Y-106412987D01*
X150923988Y-106413956D01*
X151085768Y-106435542D01*
X151088537Y-106435290D01*
X151088539Y-106435290D01*
X151245541Y-106421002D01*
X151248310Y-106420750D01*
X151325922Y-106395532D01*
X151400892Y-106371173D01*
X151400894Y-106371172D01*
X151403535Y-106370314D01*
X151405924Y-106368890D01*
X151541338Y-106288168D01*
X151541342Y-106288165D01*
X151543729Y-106286742D01*
X151545741Y-106284826D01*
X151545745Y-106284823D01*
X151599678Y-106233462D01*
X151661923Y-106174187D01*
X151708746Y-106103713D01*
X151740381Y-106082456D01*
X151777783Y-106089793D01*
X151792821Y-106105475D01*
X151818517Y-106147904D01*
X151818520Y-106147908D01*
X151819962Y-106150289D01*
X151821898Y-106152294D01*
X151821899Y-106152295D01*
X151931408Y-106265695D01*
X151931411Y-106265698D01*
X151933340Y-106267695D01*
X151935662Y-106269214D01*
X151935665Y-106269217D01*
X152023018Y-106326379D01*
X152069911Y-106357065D01*
X152101708Y-106368890D01*
X152220279Y-106412986D01*
X152220281Y-106412987D01*
X152222888Y-106413956D01*
X152384668Y-106435542D01*
X152387437Y-106435290D01*
X152387439Y-106435290D01*
X152544441Y-106421002D01*
X152547210Y-106420750D01*
X152624822Y-106395532D01*
X152699792Y-106371173D01*
X152699794Y-106371172D01*
X152702435Y-106370314D01*
X152704824Y-106368890D01*
X152840238Y-106288168D01*
X152840242Y-106288165D01*
X152842629Y-106286742D01*
X152844641Y-106284826D01*
X152844645Y-106284823D01*
X152898578Y-106233462D01*
X152960823Y-106174187D01*
X152962360Y-106171873D01*
X152962363Y-106171870D01*
X153049603Y-106040563D01*
X153049604Y-106040560D01*
X153051144Y-106038243D01*
X153052131Y-106035645D01*
X153052133Y-106035641D01*
X153079037Y-105964815D01*
X153105177Y-105937076D01*
X153125591Y-105932700D01*
X153193803Y-105932700D01*
X153196408Y-105932768D01*
X153237739Y-105934934D01*
X153242623Y-105933059D01*
X153242625Y-105933059D01*
X153262706Y-105925351D01*
X153270196Y-105923132D01*
X153291244Y-105918658D01*
X153291246Y-105918657D01*
X153296365Y-105917569D01*
X153306055Y-105910528D01*
X153317480Y-105904326D01*
X153323774Y-105901910D01*
X153323778Y-105901908D01*
X153328664Y-105900032D01*
X153347578Y-105881118D01*
X153353520Y-105876043D01*
X153370925Y-105863398D01*
X153370926Y-105863397D01*
X153375158Y-105860322D01*
X153379363Y-105853040D01*
X153381147Y-105849949D01*
X153389061Y-105839635D01*
X154457939Y-104770758D01*
X154459830Y-104768963D01*
X154486698Y-104744771D01*
X154486698Y-104744770D01*
X154490586Y-104741270D01*
X154496547Y-104727883D01*
X154501463Y-104716841D01*
X154505191Y-104709975D01*
X154516911Y-104691927D01*
X154516912Y-104691925D01*
X154519762Y-104687536D01*
X154520782Y-104681100D01*
X154521636Y-104675704D01*
X154525329Y-104663237D01*
X154528071Y-104657078D01*
X154530200Y-104652297D01*
X154530200Y-104625550D01*
X154530813Y-104617760D01*
X154534178Y-104596513D01*
X154534997Y-104591342D01*
X154531897Y-104579772D01*
X154530200Y-104566883D01*
X154530200Y-101587610D01*
X154530268Y-101585004D01*
X154532160Y-101548901D01*
X154532434Y-101543673D01*
X154530557Y-101538784D01*
X154530557Y-101538782D01*
X154522851Y-101518707D01*
X154520631Y-101511215D01*
X154516157Y-101490168D01*
X154515069Y-101485048D01*
X154508028Y-101475358D01*
X154501826Y-101463933D01*
X154499410Y-101457639D01*
X154499408Y-101457635D01*
X154497532Y-101452749D01*
X154478618Y-101433835D01*
X154473543Y-101427893D01*
X154460898Y-101410488D01*
X154460897Y-101410487D01*
X154457822Y-101406255D01*
X154453291Y-101403639D01*
X154453290Y-101403638D01*
X154447449Y-101400266D01*
X154437135Y-101392352D01*
X154341764Y-101296981D01*
X156369026Y-101296981D01*
X156369355Y-101299961D01*
X156369355Y-101299964D01*
X156375485Y-101355490D01*
X156385692Y-101447943D01*
X156437887Y-101590571D01*
X156522597Y-101716633D01*
X156634931Y-101818850D01*
X156637574Y-101820285D01*
X156765767Y-101889888D01*
X156765769Y-101889889D01*
X156768405Y-101891320D01*
X156841859Y-101910590D01*
X156912411Y-101929100D01*
X156912414Y-101929100D01*
X156915313Y-101929861D01*
X156981348Y-101930898D01*
X157064172Y-101932199D01*
X157064173Y-101932199D01*
X157067173Y-101932246D01*
X157070098Y-101931576D01*
X157070099Y-101931576D01*
X157133330Y-101917094D01*
X157215219Y-101898339D01*
X157217899Y-101896991D01*
X157217902Y-101896990D01*
X157348219Y-101831448D01*
X157348223Y-101831446D01*
X157350904Y-101830097D01*
X157353188Y-101828147D01*
X157353190Y-101828145D01*
X157464112Y-101733408D01*
X157466394Y-101731459D01*
X157555021Y-101608121D01*
X157611670Y-101467202D01*
X157633070Y-101316838D01*
X157633209Y-101303600D01*
X157614963Y-101152821D01*
X157613902Y-101150013D01*
X157613901Y-101150009D01*
X157562338Y-101013553D01*
X157562337Y-101013551D01*
X157561277Y-101010746D01*
X157559178Y-101007691D01*
X157517648Y-100947266D01*
X157475252Y-100885579D01*
X157444199Y-100857912D01*
X157364094Y-100786540D01*
X157364091Y-100786538D01*
X157361853Y-100784544D01*
X157312806Y-100758575D01*
X157292192Y-100747660D01*
X157267896Y-100718292D01*
X157271484Y-100680346D01*
X157293118Y-100659160D01*
X157350904Y-100630097D01*
X157353188Y-100628147D01*
X157353190Y-100628145D01*
X157464112Y-100533408D01*
X157466394Y-100531459D01*
X157516537Y-100461678D01*
X157553270Y-100410558D01*
X157553271Y-100410557D01*
X157555021Y-100408121D01*
X157611670Y-100267202D01*
X157612339Y-100262505D01*
X157632839Y-100118461D01*
X157633070Y-100116838D01*
X157633209Y-100103600D01*
X157614963Y-99952821D01*
X157613902Y-99950013D01*
X157613901Y-99950009D01*
X157562338Y-99813553D01*
X157562337Y-99813551D01*
X157561277Y-99810746D01*
X157559178Y-99807691D01*
X157509125Y-99734865D01*
X157475252Y-99685579D01*
X157390328Y-99609914D01*
X157364094Y-99586540D01*
X157364091Y-99586538D01*
X157361853Y-99584544D01*
X157292628Y-99547891D01*
X157292192Y-99547660D01*
X157267896Y-99518292D01*
X157271484Y-99480346D01*
X157293118Y-99459160D01*
X157350904Y-99430097D01*
X157353188Y-99428147D01*
X157353190Y-99428145D01*
X157464112Y-99333408D01*
X157466394Y-99331459D01*
X157493394Y-99293884D01*
X157553270Y-99210558D01*
X157553271Y-99210557D01*
X157555021Y-99208121D01*
X157611670Y-99067202D01*
X157633070Y-98916838D01*
X157633209Y-98903600D01*
X157614963Y-98752821D01*
X157613902Y-98750013D01*
X157613901Y-98750009D01*
X157562338Y-98613553D01*
X157562337Y-98613551D01*
X157561277Y-98610746D01*
X157559178Y-98607691D01*
X157510184Y-98536406D01*
X157475252Y-98485579D01*
X157440203Y-98454351D01*
X157364094Y-98386540D01*
X157364091Y-98386538D01*
X157361853Y-98384544D01*
X157227628Y-98313475D01*
X157080324Y-98276475D01*
X157077320Y-98276459D01*
X157077318Y-98276459D01*
X157006482Y-98276088D01*
X156928447Y-98275680D01*
X156780764Y-98311136D01*
X156645802Y-98380795D01*
X156531351Y-98480637D01*
X156529628Y-98483089D01*
X156529625Y-98483092D01*
X156515212Y-98503600D01*
X156444020Y-98604896D01*
X156442931Y-98607689D01*
X156442930Y-98607691D01*
X156426345Y-98650230D01*
X156388850Y-98746401D01*
X156388458Y-98749375D01*
X156388458Y-98749377D01*
X156386948Y-98760846D01*
X156369026Y-98896981D01*
X156369355Y-98899961D01*
X156369355Y-98899964D01*
X156383074Y-99024227D01*
X156385692Y-99047943D01*
X156437887Y-99190571D01*
X156522597Y-99316633D01*
X156634931Y-99418850D01*
X156637569Y-99420282D01*
X156637570Y-99420283D01*
X156710481Y-99459870D01*
X156734467Y-99489491D01*
X156730483Y-99527398D01*
X156709560Y-99547887D01*
X156645802Y-99580795D01*
X156531351Y-99680637D01*
X156529628Y-99683089D01*
X156529625Y-99683092D01*
X156495840Y-99731164D01*
X156444020Y-99804896D01*
X156442931Y-99807689D01*
X156442930Y-99807691D01*
X156441739Y-99810746D01*
X156388850Y-99946401D01*
X156369026Y-100096981D01*
X156369355Y-100099961D01*
X156369355Y-100099964D01*
X156376835Y-100167714D01*
X156385692Y-100247943D01*
X156437887Y-100390571D01*
X156522597Y-100516633D01*
X156634931Y-100618850D01*
X156637569Y-100620282D01*
X156637570Y-100620283D01*
X156710481Y-100659870D01*
X156734467Y-100689491D01*
X156730483Y-100727398D01*
X156709560Y-100747887D01*
X156645802Y-100780795D01*
X156531351Y-100880637D01*
X156529628Y-100883089D01*
X156529625Y-100883092D01*
X156484523Y-100947266D01*
X156444020Y-101004896D01*
X156442931Y-101007689D01*
X156442930Y-101007691D01*
X156426345Y-101050230D01*
X156388850Y-101146401D01*
X156369026Y-101296981D01*
X154341764Y-101296981D01*
X153912936Y-100868153D01*
X153911141Y-100866261D01*
X153886960Y-100839405D01*
X153883457Y-100835514D01*
X153859012Y-100824630D01*
X153852166Y-100820913D01*
X153829723Y-100806339D01*
X153824556Y-100805521D01*
X153824554Y-100805520D01*
X153817896Y-100804466D01*
X153805428Y-100800773D01*
X153799268Y-100798030D01*
X153794484Y-100795900D01*
X153767736Y-100795900D01*
X153759945Y-100795287D01*
X153755725Y-100794619D01*
X153733529Y-100791103D01*
X153730128Y-100792014D01*
X153695077Y-100779601D01*
X153678600Y-100742593D01*
X153678600Y-100541042D01*
X153674147Y-100518655D01*
X153672159Y-100508662D01*
X153672159Y-100508661D01*
X153671202Y-100503852D01*
X153643022Y-100461678D01*
X153638944Y-100458953D01*
X153638943Y-100458952D01*
X153618073Y-100445007D01*
X153596897Y-100413316D01*
X153604333Y-100375933D01*
X153618073Y-100362193D01*
X153638943Y-100348248D01*
X153638944Y-100348247D01*
X153643022Y-100345522D01*
X153671202Y-100303348D01*
X153678600Y-100266158D01*
X153678600Y-99441042D01*
X153676423Y-99430097D01*
X153672159Y-99408662D01*
X153672159Y-99408661D01*
X153671202Y-99403852D01*
X153643022Y-99361678D01*
X153638944Y-99358953D01*
X153638943Y-99358952D01*
X153618073Y-99345007D01*
X153596897Y-99313316D01*
X153604333Y-99275933D01*
X153618073Y-99262193D01*
X153638943Y-99248248D01*
X153638944Y-99248247D01*
X153643022Y-99245522D01*
X153671202Y-99203348D01*
X153674305Y-99187752D01*
X153678123Y-99168556D01*
X153678600Y-99166158D01*
X153678600Y-99098101D01*
X153851053Y-99098101D01*
X153867599Y-99224636D01*
X153889189Y-99273702D01*
X153913530Y-99329021D01*
X153918994Y-99341440D01*
X154001106Y-99439125D01*
X154107335Y-99509836D01*
X154110723Y-99510894D01*
X154110724Y-99510895D01*
X154150395Y-99523289D01*
X154229141Y-99547891D01*
X154232686Y-99547956D01*
X154353183Y-99550165D01*
X154356731Y-99550230D01*
X154360157Y-99549296D01*
X154476428Y-99517597D01*
X154476430Y-99517596D01*
X154479849Y-99516664D01*
X154538998Y-99480346D01*
X154585580Y-99451745D01*
X154585583Y-99451743D01*
X154588597Y-99449892D01*
X154674234Y-99355282D01*
X154674768Y-99354179D01*
X154705834Y-99333615D01*
X154715338Y-99332700D01*
X155188452Y-99332700D01*
X155223666Y-99347286D01*
X155226569Y-99350452D01*
X155301106Y-99439125D01*
X155407335Y-99509836D01*
X155410723Y-99510894D01*
X155410724Y-99510895D01*
X155450395Y-99523289D01*
X155529141Y-99547891D01*
X155532686Y-99547956D01*
X155653183Y-99550165D01*
X155656731Y-99550230D01*
X155660157Y-99549296D01*
X155776428Y-99517597D01*
X155776430Y-99517596D01*
X155779849Y-99516664D01*
X155838998Y-99480346D01*
X155885580Y-99451745D01*
X155885583Y-99451743D01*
X155888597Y-99449892D01*
X155906515Y-99430097D01*
X155971854Y-99357912D01*
X155971856Y-99357910D01*
X155974234Y-99355282D01*
X156029875Y-99240440D01*
X156051047Y-99114596D01*
X156051181Y-99103600D01*
X156050394Y-99098101D01*
X156033593Y-98980789D01*
X156033090Y-98977277D01*
X155980272Y-98861110D01*
X155896972Y-98764435D01*
X155789887Y-98695027D01*
X155667626Y-98658463D01*
X155664079Y-98658441D01*
X155664077Y-98658441D01*
X155606127Y-98658087D01*
X155540017Y-98657683D01*
X155417318Y-98692751D01*
X155309394Y-98760846D01*
X155224919Y-98856495D01*
X155223602Y-98855332D01*
X155196928Y-98873464D01*
X155186823Y-98874500D01*
X154714636Y-98874500D01*
X154676909Y-98857207D01*
X154599289Y-98767124D01*
X154596972Y-98764435D01*
X154489887Y-98695027D01*
X154367626Y-98658463D01*
X154364079Y-98658441D01*
X154364077Y-98658441D01*
X154306127Y-98658087D01*
X154240017Y-98657683D01*
X154117318Y-98692751D01*
X154009394Y-98760846D01*
X153988642Y-98784343D01*
X153930751Y-98849892D01*
X153924919Y-98856495D01*
X153907308Y-98894006D01*
X153872193Y-98968796D01*
X153872192Y-98968799D01*
X153870685Y-98972009D01*
X153851053Y-99098101D01*
X153678600Y-99098101D01*
X153678600Y-98341042D01*
X153675494Y-98325428D01*
X153672159Y-98308662D01*
X153672159Y-98308661D01*
X153671202Y-98303852D01*
X153643022Y-98261678D01*
X153638944Y-98258953D01*
X153638943Y-98258952D01*
X153618073Y-98245007D01*
X153596897Y-98213316D01*
X153604333Y-98175933D01*
X153618073Y-98162193D01*
X153638943Y-98148248D01*
X153638944Y-98148247D01*
X153643022Y-98145522D01*
X153671202Y-98103348D01*
X153678600Y-98066158D01*
X153678600Y-97241042D01*
X153671202Y-97203852D01*
X153657112Y-97182765D01*
X153645747Y-97165756D01*
X153643022Y-97161678D01*
X153638944Y-97158953D01*
X153638943Y-97158952D01*
X153618073Y-97145007D01*
X153596897Y-97113316D01*
X153604333Y-97075933D01*
X153618073Y-97062193D01*
X153638943Y-97048248D01*
X153638944Y-97048247D01*
X153643022Y-97045522D01*
X153654832Y-97027848D01*
X153668477Y-97007426D01*
X153671202Y-97003348D01*
X153678600Y-96966158D01*
X153678600Y-96832500D01*
X153693186Y-96797286D01*
X153728400Y-96782700D01*
X155407382Y-96782700D01*
X155442596Y-96797286D01*
X155448714Y-96804721D01*
X155521497Y-96913033D01*
X155523719Y-96915054D01*
X155523719Y-96915055D01*
X155530160Y-96920916D01*
X155633831Y-97015250D01*
X155636474Y-97016685D01*
X155764667Y-97086288D01*
X155764669Y-97086289D01*
X155767305Y-97087720D01*
X155840759Y-97106990D01*
X155911311Y-97125500D01*
X155911314Y-97125500D01*
X155914213Y-97126261D01*
X155980248Y-97127298D01*
X156063072Y-97128599D01*
X156063073Y-97128599D01*
X156066073Y-97128646D01*
X156068998Y-97127976D01*
X156068999Y-97127976D01*
X156133007Y-97113316D01*
X156214119Y-97094739D01*
X156216799Y-97093391D01*
X156216802Y-97093390D01*
X156347119Y-97027848D01*
X156347123Y-97027846D01*
X156349804Y-97026497D01*
X156352088Y-97024547D01*
X156352090Y-97024545D01*
X156463012Y-96929808D01*
X156465294Y-96927859D01*
X156534541Y-96831491D01*
X156552170Y-96806958D01*
X156552171Y-96806957D01*
X156553921Y-96804521D01*
X156610570Y-96663602D01*
X156631970Y-96513238D01*
X156632042Y-96506369D01*
X156632092Y-96501638D01*
X156632092Y-96501635D01*
X156632109Y-96500000D01*
X156613863Y-96349221D01*
X156612802Y-96346413D01*
X156612801Y-96346409D01*
X156561238Y-96209953D01*
X156561237Y-96209951D01*
X156560177Y-96207146D01*
X156558078Y-96204091D01*
X156523796Y-96154211D01*
X156474152Y-96081979D01*
X156425771Y-96038873D01*
X156362994Y-95982940D01*
X156362991Y-95982938D01*
X156360753Y-95980944D01*
X156226528Y-95909875D01*
X156079224Y-95872875D01*
X156076220Y-95872859D01*
X156076218Y-95872859D01*
X156005382Y-95872488D01*
X155927347Y-95872080D01*
X155779664Y-95907536D01*
X155644702Y-95977195D01*
X155530251Y-96077037D01*
X155528528Y-96079489D01*
X155528525Y-96079492D01*
X155486953Y-96138644D01*
X155442920Y-96201296D01*
X155441831Y-96204089D01*
X155441830Y-96204091D01*
X155407248Y-96292790D01*
X155380867Y-96320300D01*
X155360850Y-96324500D01*
X153728400Y-96324500D01*
X153693186Y-96309914D01*
X153678600Y-96274700D01*
X153678600Y-96141042D01*
X153673132Y-96113555D01*
X153680567Y-96076172D01*
X153694308Y-96062432D01*
X153729567Y-96038873D01*
X153736374Y-96032066D01*
X153786883Y-95956473D01*
X153790566Y-95947582D01*
X153803823Y-95880936D01*
X153804300Y-95876090D01*
X153804300Y-95640106D01*
X153801399Y-95633101D01*
X153794394Y-95630200D01*
X151507806Y-95630200D01*
X151500801Y-95633101D01*
X151497900Y-95640106D01*
X151497900Y-95876090D01*
X151498377Y-95880936D01*
X151511634Y-95947582D01*
X151515317Y-95956473D01*
X151565826Y-96032066D01*
X151572633Y-96038873D01*
X151607892Y-96062432D01*
X151629068Y-96094123D01*
X151629068Y-96113554D01*
X151623600Y-96141042D01*
X151623600Y-96274700D01*
X151609014Y-96309914D01*
X151573800Y-96324500D01*
X149958406Y-96324500D01*
X149955800Y-96324432D01*
X149950246Y-96324141D01*
X149914461Y-96322266D01*
X149909577Y-96324141D01*
X149909575Y-96324141D01*
X149889494Y-96331849D01*
X149882004Y-96334068D01*
X149860956Y-96338542D01*
X149860954Y-96338543D01*
X149855835Y-96339631D01*
X149846146Y-96346671D01*
X149834720Y-96352874D01*
X149828426Y-96355290D01*
X149828422Y-96355292D01*
X149823536Y-96357168D01*
X149804622Y-96376082D01*
X149798680Y-96381157D01*
X149781275Y-96393802D01*
X149781274Y-96393803D01*
X149777042Y-96396878D01*
X149774426Y-96401409D01*
X149774425Y-96401410D01*
X149771053Y-96407251D01*
X149763139Y-96417565D01*
X149444252Y-96736451D01*
X149442361Y-96738245D01*
X149411614Y-96765930D01*
X149400730Y-96790375D01*
X149397013Y-96797221D01*
X149382439Y-96819664D01*
X149381621Y-96824831D01*
X149381620Y-96824833D01*
X149380566Y-96831491D01*
X149376873Y-96843958D01*
X149372000Y-96854903D01*
X149372000Y-96881651D01*
X149371387Y-96889442D01*
X149367203Y-96915858D01*
X149368558Y-96920915D01*
X149368558Y-96920916D01*
X149370303Y-96927428D01*
X149372000Y-96940317D01*
X149372000Y-98430276D01*
X149357414Y-98465490D01*
X149322200Y-98480076D01*
X149286986Y-98465490D01*
X149278618Y-98457122D01*
X149273543Y-98451180D01*
X149260898Y-98433775D01*
X149260897Y-98433774D01*
X149257822Y-98429542D01*
X149253291Y-98426926D01*
X149253290Y-98426925D01*
X149247449Y-98423553D01*
X149237135Y-98415639D01*
X149152648Y-98331152D01*
X149138062Y-98295938D01*
X149138752Y-98287676D01*
X149143584Y-98258952D01*
X149151047Y-98214596D01*
X149151181Y-98203600D01*
X149150394Y-98198101D01*
X149133593Y-98080789D01*
X149133090Y-98077277D01*
X149080272Y-97961110D01*
X148996972Y-97864435D01*
X148889887Y-97795027D01*
X148767626Y-97758463D01*
X148764079Y-97758441D01*
X148764077Y-97758441D01*
X148706127Y-97758087D01*
X148640017Y-97757683D01*
X148517318Y-97792751D01*
X148409394Y-97860846D01*
X148390093Y-97882700D01*
X148330510Y-97950165D01*
X148324919Y-97956495D01*
X148308924Y-97990563D01*
X148272193Y-98068796D01*
X148272192Y-98068799D01*
X148270685Y-98072009D01*
X148251053Y-98198101D01*
X148267599Y-98324636D01*
X148284900Y-98363956D01*
X148314082Y-98430276D01*
X148318994Y-98441440D01*
X148401106Y-98539125D01*
X148507335Y-98609836D01*
X148510723Y-98610894D01*
X148510724Y-98610895D01*
X148519232Y-98613553D01*
X148629141Y-98647891D01*
X148632686Y-98647956D01*
X148753183Y-98650165D01*
X148756731Y-98650230D01*
X148781500Y-98643477D01*
X148819310Y-98648287D01*
X148829813Y-98656309D01*
X148857414Y-98683910D01*
X148872000Y-98719124D01*
X148872000Y-99596303D01*
X148871932Y-99598908D01*
X148869766Y-99640239D01*
X148871641Y-99645123D01*
X148871641Y-99645125D01*
X148879349Y-99665206D01*
X148881568Y-99672696D01*
X148884307Y-99685579D01*
X148887131Y-99698865D01*
X148890209Y-99703101D01*
X148894171Y-99708554D01*
X148900374Y-99719980D01*
X148902790Y-99726274D01*
X148902792Y-99726278D01*
X148904668Y-99731164D01*
X148923582Y-99750078D01*
X148928657Y-99756020D01*
X148941302Y-99773425D01*
X148941303Y-99773426D01*
X148944378Y-99777658D01*
X148948909Y-99780274D01*
X148948910Y-99780275D01*
X148954751Y-99783647D01*
X148965065Y-99791561D01*
X149183933Y-100010429D01*
X149185728Y-100012320D01*
X149213430Y-100043086D01*
X149237871Y-100053968D01*
X149244729Y-100057692D01*
X149267163Y-100072261D01*
X149272332Y-100073080D01*
X149272333Y-100073080D01*
X149276872Y-100073798D01*
X149278992Y-100074134D01*
X149291458Y-100077827D01*
X149302403Y-100082700D01*
X149329151Y-100082700D01*
X149336942Y-100083313D01*
X149363358Y-100087497D01*
X149368415Y-100086142D01*
X149368416Y-100086142D01*
X149374928Y-100084397D01*
X149387817Y-100082700D01*
X149946907Y-100082700D01*
X149982121Y-100097286D01*
X149996707Y-100132500D01*
X149982121Y-100167714D01*
X149960592Y-100180383D01*
X149917318Y-100192751D01*
X149809394Y-100260846D01*
X149803781Y-100267202D01*
X149732203Y-100348248D01*
X149724919Y-100356495D01*
X149707752Y-100393060D01*
X149672193Y-100468796D01*
X149672192Y-100468799D01*
X149670685Y-100472009D01*
X149651053Y-100598101D01*
X149653954Y-100620283D01*
X149663085Y-100690114D01*
X149653188Y-100726922D01*
X149648919Y-100731785D01*
X147686580Y-102694123D01*
X145744261Y-104636442D01*
X145742370Y-104638237D01*
X145711614Y-104665930D01*
X145700730Y-104690375D01*
X145697013Y-104697221D01*
X145682439Y-104719664D01*
X145681621Y-104724831D01*
X145681620Y-104724833D01*
X145680566Y-104731491D01*
X145676873Y-104743958D01*
X145672000Y-104754903D01*
X145672000Y-104781651D01*
X145671387Y-104789442D01*
X145667203Y-104815858D01*
X145668558Y-104820915D01*
X145668558Y-104820916D01*
X145670303Y-104827428D01*
X145672000Y-104840317D01*
X145672000Y-108245776D01*
X145657414Y-108280990D01*
X142885764Y-111052640D01*
X142850550Y-111067226D01*
X142822943Y-111058873D01*
X142814015Y-111052926D01*
X142814013Y-111052925D01*
X142809938Y-111050211D01*
X142800014Y-111048246D01*
X142775406Y-111043373D01*
X142775404Y-111043373D01*
X142773016Y-111042900D01*
X142293353Y-111042900D01*
X141807987Y-111042901D01*
X141770643Y-111050385D01*
X141757964Y-111058873D01*
X141741407Y-111069957D01*
X141739363Y-111071325D01*
X141251622Y-111559066D01*
X141230511Y-111590762D01*
X141229560Y-111595565D01*
X141223679Y-111625267D01*
X141223200Y-111627684D01*
X139203200Y-111627684D01*
X139203200Y-104576090D01*
X141997900Y-104576090D01*
X141998377Y-104580936D01*
X142011634Y-104647582D01*
X142015317Y-104656473D01*
X142065826Y-104732066D01*
X142072634Y-104738874D01*
X142148227Y-104789383D01*
X142157118Y-104793066D01*
X142223764Y-104806323D01*
X142228610Y-104806800D01*
X143014594Y-104806800D01*
X143021599Y-104803899D01*
X143024500Y-104796894D01*
X143277700Y-104796894D01*
X143280601Y-104803899D01*
X143287606Y-104806800D01*
X144073590Y-104806800D01*
X144078436Y-104806323D01*
X144145082Y-104793066D01*
X144153973Y-104789383D01*
X144229566Y-104738874D01*
X144236374Y-104732066D01*
X144286883Y-104656473D01*
X144290566Y-104647582D01*
X144300409Y-104598101D01*
X144600653Y-104598101D01*
X144617199Y-104724636D01*
X144626059Y-104744771D01*
X144662429Y-104827428D01*
X144668594Y-104841440D01*
X144750706Y-104939125D01*
X144856935Y-105009836D01*
X144860323Y-105010894D01*
X144860324Y-105010895D01*
X144878790Y-105016664D01*
X144978741Y-105047891D01*
X144982286Y-105047956D01*
X145102783Y-105050165D01*
X145106331Y-105050230D01*
X145114910Y-105047891D01*
X145226028Y-105017597D01*
X145226030Y-105017596D01*
X145229449Y-105016664D01*
X145275670Y-104988284D01*
X145335180Y-104951745D01*
X145335183Y-104951743D01*
X145338197Y-104949892D01*
X145384719Y-104898496D01*
X145421454Y-104857912D01*
X145421456Y-104857910D01*
X145423834Y-104855282D01*
X145479475Y-104740440D01*
X145500647Y-104614596D01*
X145500712Y-104609285D01*
X145500758Y-104605528D01*
X145500758Y-104605522D01*
X145500781Y-104603600D01*
X145499994Y-104598101D01*
X145483193Y-104480789D01*
X145482690Y-104477277D01*
X145429872Y-104361110D01*
X145346572Y-104264435D01*
X145343594Y-104262505D01*
X145343592Y-104262503D01*
X145302513Y-104235877D01*
X145280897Y-104204484D01*
X145279800Y-104194088D01*
X145279800Y-98358045D01*
X145291968Y-98325428D01*
X145604095Y-97965313D01*
X145638180Y-97948256D01*
X145642629Y-97948138D01*
X145743595Y-97949989D01*
X145753183Y-97950165D01*
X145756731Y-97950230D01*
X145763972Y-97948256D01*
X145876428Y-97917597D01*
X145876430Y-97917596D01*
X145879849Y-97916664D01*
X145920538Y-97891681D01*
X145985580Y-97851745D01*
X145985583Y-97851743D01*
X145988597Y-97849892D01*
X145999113Y-97838274D01*
X146071854Y-97757912D01*
X146071856Y-97757910D01*
X146074234Y-97755282D01*
X146129875Y-97640440D01*
X146151047Y-97514596D01*
X146151181Y-97503600D01*
X146150394Y-97498101D01*
X146133593Y-97380789D01*
X146133090Y-97377277D01*
X146080272Y-97261110D01*
X145996972Y-97164435D01*
X145938076Y-97126261D01*
X145892865Y-97096957D01*
X145892864Y-97096956D01*
X145889887Y-97095027D01*
X145767626Y-97058463D01*
X145764079Y-97058441D01*
X145764077Y-97058441D01*
X145706127Y-97058087D01*
X145640017Y-97057683D01*
X145517318Y-97092751D01*
X145409394Y-97160846D01*
X145400244Y-97171206D01*
X145338567Y-97241042D01*
X145324919Y-97256495D01*
X145319929Y-97267124D01*
X145272193Y-97368796D01*
X145272192Y-97368799D01*
X145270685Y-97372009D01*
X145251053Y-97498101D01*
X145263118Y-97590364D01*
X145267599Y-97624636D01*
X145266480Y-97624782D01*
X145262406Y-97658421D01*
X145256654Y-97666587D01*
X145026179Y-97932500D01*
X144897652Y-98080789D01*
X144888882Y-98090907D01*
X144884575Y-98095296D01*
X144879873Y-98099530D01*
X144865104Y-98112827D01*
X144865103Y-98112828D01*
X144861214Y-98116330D01*
X144859085Y-98121111D01*
X144859084Y-98121113D01*
X144846275Y-98149882D01*
X144844372Y-98153706D01*
X144826617Y-98185847D01*
X144826168Y-98191064D01*
X144824747Y-98195737D01*
X144823731Y-98200518D01*
X144821600Y-98205303D01*
X144821600Y-98242029D01*
X144821417Y-98246297D01*
X144818270Y-98282882D01*
X144819982Y-98287831D01*
X144820627Y-98293021D01*
X144820287Y-98293063D01*
X144821600Y-98300877D01*
X144821600Y-104193882D01*
X144807014Y-104229096D01*
X144798374Y-104235999D01*
X144770060Y-104253864D01*
X144758994Y-104260846D01*
X144674519Y-104356495D01*
X144645953Y-104417338D01*
X144621793Y-104468796D01*
X144621792Y-104468799D01*
X144620285Y-104472009D01*
X144600653Y-104598101D01*
X144300409Y-104598101D01*
X144303823Y-104580936D01*
X144304300Y-104576090D01*
X144304300Y-104340106D01*
X144301399Y-104333101D01*
X144294394Y-104330200D01*
X143287606Y-104330200D01*
X143280601Y-104333101D01*
X143277700Y-104340106D01*
X143277700Y-104796894D01*
X143024500Y-104796894D01*
X143024500Y-104340106D01*
X143021599Y-104333101D01*
X143014594Y-104330200D01*
X142007806Y-104330200D01*
X142000801Y-104333101D01*
X141997900Y-104340106D01*
X141997900Y-104576090D01*
X139203200Y-104576090D01*
X139203200Y-103193378D01*
X139369068Y-103193378D01*
X139384995Y-103355813D01*
X139385874Y-103358454D01*
X139385874Y-103358456D01*
X139395084Y-103386142D01*
X139436513Y-103510682D01*
X139521062Y-103650289D01*
X139522998Y-103652294D01*
X139522999Y-103652295D01*
X139632508Y-103765695D01*
X139632511Y-103765698D01*
X139634440Y-103767695D01*
X139636762Y-103769214D01*
X139636765Y-103769217D01*
X139689693Y-103803852D01*
X139771011Y-103857065D01*
X139802808Y-103868890D01*
X139921379Y-103912986D01*
X139921381Y-103912987D01*
X139923988Y-103913956D01*
X140085768Y-103935542D01*
X140088537Y-103935290D01*
X140088539Y-103935290D01*
X140245541Y-103921002D01*
X140248310Y-103920750D01*
X140325923Y-103895532D01*
X140400892Y-103871173D01*
X140400894Y-103871172D01*
X140403535Y-103870314D01*
X140405924Y-103868890D01*
X140541338Y-103788168D01*
X140541342Y-103788165D01*
X140543729Y-103786742D01*
X140545741Y-103784826D01*
X140545745Y-103784823D01*
X140659908Y-103676106D01*
X140659909Y-103676105D01*
X140661923Y-103674187D01*
X140665817Y-103668327D01*
X140706335Y-103607341D01*
X140737971Y-103586083D01*
X140747815Y-103585100D01*
X142035632Y-103585100D01*
X142070846Y-103599686D01*
X142085432Y-103634900D01*
X142070846Y-103670114D01*
X142065826Y-103675134D01*
X142015317Y-103750727D01*
X142011634Y-103759618D01*
X141998377Y-103826264D01*
X141997900Y-103831110D01*
X141997900Y-104067094D01*
X142000801Y-104074099D01*
X142007806Y-104077000D01*
X144294394Y-104077000D01*
X144301399Y-104074099D01*
X144304300Y-104067094D01*
X144304300Y-103831110D01*
X144303823Y-103826264D01*
X144290566Y-103759618D01*
X144286883Y-103750727D01*
X144236374Y-103675134D01*
X144229567Y-103668327D01*
X144194308Y-103644768D01*
X144173132Y-103613077D01*
X144173132Y-103593645D01*
X144178123Y-103568556D01*
X144178600Y-103566158D01*
X144178600Y-102741042D01*
X144173132Y-102713555D01*
X144180567Y-102676172D01*
X144194308Y-102662432D01*
X144229567Y-102638873D01*
X144236374Y-102632066D01*
X144286883Y-102556473D01*
X144290566Y-102547582D01*
X144303823Y-102480936D01*
X144304300Y-102476090D01*
X144304300Y-102190106D01*
X144301399Y-102183101D01*
X144294394Y-102180200D01*
X142007806Y-102180200D01*
X142000801Y-102183101D01*
X141997900Y-102190106D01*
X141997900Y-102476090D01*
X141998377Y-102480936D01*
X142011634Y-102547582D01*
X142015317Y-102556473D01*
X142065826Y-102632066D01*
X142072633Y-102638873D01*
X142107892Y-102662432D01*
X142129068Y-102694123D01*
X142129068Y-102713554D01*
X142123600Y-102741042D01*
X142123600Y-102772300D01*
X142109014Y-102807514D01*
X142073800Y-102822100D01*
X140748217Y-102822100D01*
X140713003Y-102807514D01*
X140705984Y-102798690D01*
X140676319Y-102751216D01*
X140676318Y-102751214D01*
X140674844Y-102748856D01*
X140669513Y-102743487D01*
X140576905Y-102650230D01*
X140559839Y-102633044D01*
X140557498Y-102631558D01*
X140557495Y-102631556D01*
X140426221Y-102548248D01*
X140422033Y-102545590D01*
X140268276Y-102490840D01*
X140106211Y-102471515D01*
X140103442Y-102471806D01*
X140103440Y-102471806D01*
X139946659Y-102488284D01*
X139946657Y-102488284D01*
X139943892Y-102488575D01*
X139941262Y-102489470D01*
X139941259Y-102489471D01*
X139792023Y-102540275D01*
X139792021Y-102540276D01*
X139789386Y-102541173D01*
X139787016Y-102542631D01*
X139787014Y-102542632D01*
X139764516Y-102556473D01*
X139650372Y-102626695D01*
X139628661Y-102647956D01*
X139536054Y-102738644D01*
X139533761Y-102740889D01*
X139532254Y-102743228D01*
X139532252Y-102743230D01*
X139513518Y-102772300D01*
X139445347Y-102878081D01*
X139444396Y-102880694D01*
X139444395Y-102880696D01*
X139428452Y-102924500D01*
X139389524Y-103031452D01*
X139369068Y-103193378D01*
X139203200Y-103193378D01*
X139203200Y-101917094D01*
X141997900Y-101917094D01*
X142000801Y-101924099D01*
X142007806Y-101927000D01*
X143014594Y-101927000D01*
X143021599Y-101924099D01*
X143024500Y-101917094D01*
X143277700Y-101917094D01*
X143280601Y-101924099D01*
X143287606Y-101927000D01*
X144294394Y-101927000D01*
X144301399Y-101924099D01*
X144304300Y-101917094D01*
X144304300Y-101631110D01*
X144303823Y-101626264D01*
X144290566Y-101559618D01*
X144286883Y-101550727D01*
X144236374Y-101475134D01*
X144229566Y-101468326D01*
X144153973Y-101417817D01*
X144145082Y-101414134D01*
X144078436Y-101400877D01*
X144073590Y-101400400D01*
X143287606Y-101400400D01*
X143280601Y-101403301D01*
X143277700Y-101410306D01*
X143277700Y-101917094D01*
X143024500Y-101917094D01*
X143024500Y-101410306D01*
X143021599Y-101403301D01*
X143014594Y-101400400D01*
X142228610Y-101400400D01*
X142223764Y-101400877D01*
X142157118Y-101414134D01*
X142148227Y-101417817D01*
X142072634Y-101468326D01*
X142065826Y-101475134D01*
X142015317Y-101550727D01*
X142011634Y-101559618D01*
X141998377Y-101626264D01*
X141997900Y-101631110D01*
X141997900Y-101917094D01*
X139203200Y-101917094D01*
X139203200Y-99098101D01*
X141951053Y-99098101D01*
X141967599Y-99224636D01*
X141989189Y-99273702D01*
X142013530Y-99329021D01*
X142018994Y-99341440D01*
X142101106Y-99439125D01*
X142207335Y-99509836D01*
X142210723Y-99510894D01*
X142210724Y-99510895D01*
X142250395Y-99523289D01*
X142329141Y-99547891D01*
X142332686Y-99547956D01*
X142453183Y-99550165D01*
X142456731Y-99550230D01*
X142460157Y-99549296D01*
X142576428Y-99517597D01*
X142576430Y-99517596D01*
X142579849Y-99516664D01*
X142638998Y-99480346D01*
X142685580Y-99451745D01*
X142685583Y-99451743D01*
X142688597Y-99449892D01*
X142706515Y-99430097D01*
X142771854Y-99357912D01*
X142771856Y-99357910D01*
X142774234Y-99355282D01*
X142829875Y-99240440D01*
X142851047Y-99114596D01*
X142851181Y-99103600D01*
X142850394Y-99098101D01*
X142833593Y-98980789D01*
X142833090Y-98977277D01*
X142780272Y-98861110D01*
X142696972Y-98764435D01*
X142589887Y-98695027D01*
X142565731Y-98687803D01*
X142536173Y-98663739D01*
X142530200Y-98640091D01*
X142530200Y-97819124D01*
X142544786Y-97783910D01*
X143681410Y-96647286D01*
X143716624Y-96632700D01*
X146185576Y-96632700D01*
X146220790Y-96647286D01*
X147049410Y-97475906D01*
X147063996Y-97511120D01*
X147063403Y-97518780D01*
X147051053Y-97598101D01*
X147067599Y-97724636D01*
X147074499Y-97740317D01*
X147102098Y-97803040D01*
X147118994Y-97841440D01*
X147201106Y-97939125D01*
X147307335Y-98009836D01*
X147310723Y-98010894D01*
X147310724Y-98010895D01*
X147329190Y-98016664D01*
X147429141Y-98047891D01*
X147432686Y-98047956D01*
X147553183Y-98050165D01*
X147556731Y-98050230D01*
X147569191Y-98046833D01*
X147676428Y-98017597D01*
X147676430Y-98017596D01*
X147679849Y-98016664D01*
X147763482Y-97965313D01*
X147785580Y-97951745D01*
X147785583Y-97951743D01*
X147788597Y-97949892D01*
X147836214Y-97897286D01*
X147871854Y-97857912D01*
X147871856Y-97857910D01*
X147874234Y-97855282D01*
X147929875Y-97740440D01*
X147951047Y-97614596D01*
X147951181Y-97603600D01*
X147950394Y-97598101D01*
X147933593Y-97480789D01*
X147933090Y-97477277D01*
X147880272Y-97361110D01*
X147796972Y-97264435D01*
X147689887Y-97195027D01*
X147567626Y-97158463D01*
X147564079Y-97158441D01*
X147564077Y-97158441D01*
X147506127Y-97158087D01*
X147440017Y-97157683D01*
X147420879Y-97163153D01*
X147383013Y-97158805D01*
X147371980Y-97150484D01*
X146468258Y-96246761D01*
X146466463Y-96244870D01*
X146442271Y-96218002D01*
X146442270Y-96218002D01*
X146438770Y-96214114D01*
X146414325Y-96203230D01*
X146407479Y-96199513D01*
X146385036Y-96184939D01*
X146379869Y-96184121D01*
X146379867Y-96184120D01*
X146373209Y-96183066D01*
X146360741Y-96179373D01*
X146354581Y-96176630D01*
X146349797Y-96174500D01*
X146323049Y-96174500D01*
X146315258Y-96173887D01*
X146294013Y-96170522D01*
X146288842Y-96169703D01*
X146283785Y-96171058D01*
X146283784Y-96171058D01*
X146277272Y-96172803D01*
X146264383Y-96174500D01*
X143608406Y-96174500D01*
X143605800Y-96174432D01*
X143600246Y-96174141D01*
X143564461Y-96172266D01*
X143559577Y-96174141D01*
X143559575Y-96174141D01*
X143539494Y-96181849D01*
X143532004Y-96184068D01*
X143510956Y-96188542D01*
X143510954Y-96188543D01*
X143505835Y-96189631D01*
X143501598Y-96192709D01*
X143501599Y-96192709D01*
X143496146Y-96196671D01*
X143484720Y-96202874D01*
X143478426Y-96205290D01*
X143478422Y-96205292D01*
X143473536Y-96207168D01*
X143454622Y-96226082D01*
X143448680Y-96231157D01*
X143431275Y-96243802D01*
X143431274Y-96243803D01*
X143427042Y-96246878D01*
X143424426Y-96251409D01*
X143424425Y-96251410D01*
X143421053Y-96257251D01*
X143413139Y-96267565D01*
X142144261Y-97536442D01*
X142142370Y-97538237D01*
X142111614Y-97565930D01*
X142100730Y-97590375D01*
X142097013Y-97597221D01*
X142082439Y-97619664D01*
X142081621Y-97624831D01*
X142081620Y-97624833D01*
X142080566Y-97631491D01*
X142076873Y-97643958D01*
X142072000Y-97654903D01*
X142072000Y-97681651D01*
X142071387Y-97689442D01*
X142067203Y-97715858D01*
X142068558Y-97720915D01*
X142068558Y-97720916D01*
X142070303Y-97727428D01*
X142072000Y-97740317D01*
X142072000Y-98784343D01*
X142059527Y-98817309D01*
X142030751Y-98849892D01*
X142024919Y-98856495D01*
X142007308Y-98894006D01*
X141972193Y-98968796D01*
X141972192Y-98968799D01*
X141970685Y-98972009D01*
X141951053Y-99098101D01*
X139203200Y-99098101D01*
X139203200Y-97643378D01*
X139409068Y-97643378D01*
X139417309Y-97727428D01*
X139424278Y-97798496D01*
X139424995Y-97805813D01*
X139425874Y-97808454D01*
X139425874Y-97808456D01*
X139440389Y-97852090D01*
X139476513Y-97960682D01*
X139561062Y-98100289D01*
X139562998Y-98102294D01*
X139562999Y-98102295D01*
X139672508Y-98215695D01*
X139672511Y-98215698D01*
X139674440Y-98217695D01*
X139676762Y-98219214D01*
X139676765Y-98219217D01*
X139763050Y-98275680D01*
X139811011Y-98307065D01*
X139832028Y-98314881D01*
X139961379Y-98362986D01*
X139961381Y-98362987D01*
X139963988Y-98363956D01*
X140125768Y-98385542D01*
X140128537Y-98385290D01*
X140128539Y-98385290D01*
X140285541Y-98371002D01*
X140288310Y-98370750D01*
X140384589Y-98339467D01*
X140440892Y-98321173D01*
X140440894Y-98321172D01*
X140443535Y-98320314D01*
X140456623Y-98312512D01*
X140581338Y-98238168D01*
X140581342Y-98238165D01*
X140583729Y-98236742D01*
X140585741Y-98234826D01*
X140585745Y-98234823D01*
X140642159Y-98181100D01*
X140701923Y-98124187D01*
X140703460Y-98121873D01*
X140703463Y-98121870D01*
X140790703Y-97990563D01*
X140790704Y-97990560D01*
X140792244Y-97988243D01*
X140793231Y-97985645D01*
X140793233Y-97985641D01*
X140849213Y-97838274D01*
X140849214Y-97838271D01*
X140850203Y-97835667D01*
X140872918Y-97674042D01*
X140873203Y-97653600D01*
X140857611Y-97514596D01*
X140855320Y-97494166D01*
X140855320Y-97494164D01*
X140855010Y-97491404D01*
X140852506Y-97484211D01*
X140814369Y-97374700D01*
X140801334Y-97337269D01*
X140739706Y-97238644D01*
X140716319Y-97201216D01*
X140716318Y-97201214D01*
X140714844Y-97198856D01*
X140674733Y-97158463D01*
X140645123Y-97128646D01*
X140599839Y-97083044D01*
X140597498Y-97081558D01*
X140597495Y-97081556D01*
X140517134Y-97030558D01*
X140495217Y-96999374D01*
X140501770Y-96961826D01*
X140518319Y-96945734D01*
X140581334Y-96908170D01*
X140581336Y-96908169D01*
X140583729Y-96906742D01*
X140585741Y-96904826D01*
X140585745Y-96904823D01*
X140649657Y-96843959D01*
X140701923Y-96794187D01*
X140703460Y-96791873D01*
X140703463Y-96791870D01*
X140790703Y-96660563D01*
X140790704Y-96660560D01*
X140792244Y-96658243D01*
X140793231Y-96655645D01*
X140793233Y-96655641D01*
X140849213Y-96508274D01*
X140849214Y-96508271D01*
X140850203Y-96505667D01*
X140872918Y-96344042D01*
X140872980Y-96339631D01*
X140873181Y-96325169D01*
X140873203Y-96323600D01*
X140856259Y-96172540D01*
X140855320Y-96164166D01*
X140855320Y-96164164D01*
X140855010Y-96161404D01*
X140852506Y-96154211D01*
X140820281Y-96061678D01*
X140801334Y-96007269D01*
X140738577Y-95906836D01*
X140716319Y-95871216D01*
X140716318Y-95871214D01*
X140714844Y-95868856D01*
X140599839Y-95753044D01*
X140597498Y-95751558D01*
X140597495Y-95751556D01*
X140464382Y-95667081D01*
X140462033Y-95665590D01*
X140308276Y-95610840D01*
X140146211Y-95591515D01*
X140143442Y-95591806D01*
X140143440Y-95591806D01*
X139986659Y-95608284D01*
X139986657Y-95608284D01*
X139983892Y-95608575D01*
X139981262Y-95609470D01*
X139981259Y-95609471D01*
X139832023Y-95660275D01*
X139832021Y-95660276D01*
X139829386Y-95661173D01*
X139827016Y-95662631D01*
X139827014Y-95662632D01*
X139775048Y-95694602D01*
X139690372Y-95746695D01*
X139573761Y-95860889D01*
X139572254Y-95863228D01*
X139572252Y-95863230D01*
X139486856Y-95995739D01*
X139485347Y-95998081D01*
X139484396Y-96000694D01*
X139484395Y-96000696D01*
X139434186Y-96138644D01*
X139429524Y-96151452D01*
X139429176Y-96154207D01*
X139429175Y-96154211D01*
X139409417Y-96310614D01*
X139409068Y-96313378D01*
X139424995Y-96475813D01*
X139425874Y-96478454D01*
X139425874Y-96478456D01*
X139450876Y-96553613D01*
X139476513Y-96630682D01*
X139561062Y-96770289D01*
X139562998Y-96772294D01*
X139562999Y-96772295D01*
X139672508Y-96885695D01*
X139672511Y-96885698D01*
X139674440Y-96887695D01*
X139676762Y-96889214D01*
X139676765Y-96889217D01*
X139765364Y-96947195D01*
X139786843Y-96978682D01*
X139779766Y-97016135D01*
X139764189Y-97031282D01*
X139695237Y-97073702D01*
X139690372Y-97076695D01*
X139688384Y-97078642D01*
X139593861Y-97171206D01*
X139573761Y-97190889D01*
X139572254Y-97193228D01*
X139572252Y-97193230D01*
X139526427Y-97264337D01*
X139485347Y-97328081D01*
X139484396Y-97330694D01*
X139484395Y-97330696D01*
X139431044Y-97477277D01*
X139429524Y-97481452D01*
X139429176Y-97484207D01*
X139429175Y-97484211D01*
X139409881Y-97636939D01*
X139409068Y-97643378D01*
X139203200Y-97643378D01*
X139203200Y-95367094D01*
X151497900Y-95367094D01*
X151500801Y-95374099D01*
X151507806Y-95377000D01*
X152514594Y-95377000D01*
X152521599Y-95374099D01*
X152524500Y-95367094D01*
X152777700Y-95367094D01*
X152780601Y-95374099D01*
X152787606Y-95377000D01*
X153794394Y-95377000D01*
X153801399Y-95374099D01*
X153804300Y-95367094D01*
X153804300Y-95131110D01*
X153803823Y-95126264D01*
X153790566Y-95059618D01*
X153786883Y-95050727D01*
X153736374Y-94975134D01*
X153729566Y-94968326D01*
X153653973Y-94917817D01*
X153645082Y-94914134D01*
X153578436Y-94900877D01*
X153573590Y-94900400D01*
X152787606Y-94900400D01*
X152780601Y-94903301D01*
X152777700Y-94910306D01*
X152777700Y-95367094D01*
X152524500Y-95367094D01*
X152524500Y-94910306D01*
X152521599Y-94903301D01*
X152514594Y-94900400D01*
X151728610Y-94900400D01*
X151723764Y-94900877D01*
X151657118Y-94914134D01*
X151648227Y-94917817D01*
X151572634Y-94968326D01*
X151565826Y-94975134D01*
X151515317Y-95050727D01*
X151511634Y-95059618D01*
X151498377Y-95126264D01*
X151497900Y-95131110D01*
X151497900Y-95367094D01*
X139203200Y-95367094D01*
X139203200Y-94896981D01*
X155269026Y-94896981D01*
X155269355Y-94899961D01*
X155269355Y-94899964D01*
X155271037Y-94915198D01*
X155285692Y-95047943D01*
X155337887Y-95190571D01*
X155422597Y-95316633D01*
X155534931Y-95418850D01*
X155537574Y-95420285D01*
X155665767Y-95489888D01*
X155665769Y-95489889D01*
X155668405Y-95491320D01*
X155741859Y-95510591D01*
X155812411Y-95529100D01*
X155812414Y-95529100D01*
X155815313Y-95529861D01*
X155881348Y-95530898D01*
X155964172Y-95532199D01*
X155964173Y-95532199D01*
X155967173Y-95532246D01*
X155970098Y-95531576D01*
X155970099Y-95531576D01*
X156009489Y-95522554D01*
X156115219Y-95498339D01*
X156117899Y-95496991D01*
X156117902Y-95496990D01*
X156248219Y-95431448D01*
X156248223Y-95431446D01*
X156250904Y-95430097D01*
X156253188Y-95428147D01*
X156253190Y-95428145D01*
X156364112Y-95333408D01*
X156366394Y-95331459D01*
X156455021Y-95208121D01*
X156511670Y-95067202D01*
X156533070Y-94916838D01*
X156533209Y-94903600D01*
X156514963Y-94752821D01*
X156513902Y-94750013D01*
X156513901Y-94750009D01*
X156462338Y-94613553D01*
X156462337Y-94613551D01*
X156461277Y-94610746D01*
X156459178Y-94607691D01*
X156431406Y-94567284D01*
X156375252Y-94485579D01*
X156358991Y-94471091D01*
X156264094Y-94386540D01*
X156264091Y-94386538D01*
X156261853Y-94384544D01*
X156127628Y-94313475D01*
X155980324Y-94276475D01*
X155977320Y-94276459D01*
X155977318Y-94276459D01*
X155906482Y-94276088D01*
X155828447Y-94275680D01*
X155680764Y-94311136D01*
X155545802Y-94380795D01*
X155431351Y-94480637D01*
X155429628Y-94483089D01*
X155429625Y-94483092D01*
X155373596Y-94562813D01*
X155344020Y-94604896D01*
X155342931Y-94607689D01*
X155342930Y-94607691D01*
X155341739Y-94610746D01*
X155288850Y-94746401D01*
X155269026Y-94896981D01*
X139203200Y-94896981D01*
X139203200Y-93755500D01*
X139217786Y-93720286D01*
X139253000Y-93705700D01*
X157749200Y-93705700D01*
X157784414Y-93720286D01*
G37*
%TD.AperFunction*%
%TD*%
M02*
